<?xml version="1.0" encoding="UTF-8" standalone="no"?>
<svg
   xmlns:dc="http://purl.org/dc/elements/1.1/"
   xmlns:cc="http://creativecommons.org/ns#"
   xmlns:rdf="http://www.w3.org/1999/02/22-rdf-syntax-ns#"
   xmlns:svg="http://www.w3.org/2000/svg"
   xmlns="http://www.w3.org/2000/svg"
   xmlns:sodipodi="http://sodipodi.sourceforge.net/DTD/sodipodi-0.dtd"
   xmlns:inkscape="http://www.inkscape.org/namespaces/inkscape"
   viewbox="0 0 1016 963"
   width="996.14551"
   height="930.08893"
   version="1.1"
   id="svg3009"
   inkscape:version="0.48.4 r9939"
   sodipodi:docname="PrototypeCougarWhite.svg"
   inkscape:export-filename="C:\Users\kevin\Desktop\PrototypeCougarWhite.png"
   inkscape:export-xdpi="185.0332"
   inkscape:export-ydpi="185.0332">
  <metadata
     id="metadata3019">
    <rdf:RDF>
      <cc:Work
         rdf:about="">
        <dc:format>image/svg+xml</dc:format>
        <dc:type
           rdf:resource="http://purl.org/dc/dcmitype/StillImage" />
        <dc:title></dc:title>
      </cc:Work>
    </rdf:RDF>
  </metadata>
  <defs
     id="defs3017" />
  <sodipodi:namedview
     pagecolor="#ffffff"
     bordercolor="#666666"
     borderopacity="1"
     objecttolerance="10"
     gridtolerance="10"
     guidetolerance="10"
     inkscape:pageopacity="0"
     inkscape:pageshadow="2"
     inkscape:window-width="1858"
     inkscape:window-height="1057"
     id="namedview3015"
     showgrid="false"
     fit-margin-top="6"
     fit-margin-right="6"
     fit-margin-bottom="6"
     fit-margin-left="6"
     inkscape:zoom="0.54893816"
     inkscape:cx="86.030822"
     inkscape:cy="520.98149"
     inkscape:window-x="-8"
     inkscape:window-y="-8"
     inkscape:window-maximized="1"
     inkscape:current-layer="svg3009" />
  <g
     label="Layer 1"
     groupmode="layer"
     id="layer1"
     transform="translate(112.4312,-53.353446)">
    <g
       id="g3040"
       transform="translate(14.285729,4.4515446e-7)">
      <path
         style="fill:#a2a2a2"
         d="m 341.92856,977.25731 c -17.34827,-0.67159 -37.34585,-2.40764 -45.63478,-3.9617 -21.13155,-3.96187 -48.89012,-11.55044 -63.84195,-17.45295 -31.54833,-12.45428 -38.30376,-17.78497 -43.93906,-34.67219 -2.18997,-6.56264 -1.98145,-8.75774 0.98258,-10.34404 1.00732,-0.53911 20.41688,-3.24317 43.13235,-6.00905 80.5124,-9.80332 103.99533,-13.00623 110.53516,-15.07622 4.34581,-1.37555 6.89032,-0.39455 8.11905,3.13016 0.56127,1.61009 1.33276,17.9042 1.7144,36.20914 0.40384,19.36956 1.10841,33.80422 1.68552,34.53171 0.71579,0.9023 5.2463,1.25 16.28739,1.25 8.41267,0 16.00757,-0.27314 16.87755,-0.60699 1.35572,-0.52024 1.59223,-3.1285 1.65482,-18.25 0.0402,-9.70365 0.39598,-25.63632 0.7907,-35.40592 0.65353,-16.17581 0.90514,-17.9504 2.81602,-19.86129 2.04119,-2.04118 2.27174,-2.05576 8.45931,-0.53478 8.56227,2.10469 17.95368,3.40876 83.86094,11.64466 31.075,3.8832 59.11963,7.56487 62.3214,8.18149 9.60117,1.84908 10.34092,5.64992 3.66535,18.83283 -4.1844,8.26335 -9.12908,12.53509 -21.48675,18.56252 -29.15094,14.21833 -73.16811,26.07226 -105.5,28.41139 -15.36057,1.11131 -67.36414,2.00717 -82.5,1.42123 z m -1.65867,-12.27592 c 1.08519,-0.6878 1.27615,-6.49352 1,-30.40233 -0.18773,-16.25371 -0.69245,-29.90287 -1.1216,-30.33147 -1.30223,-1.30059 -110.66591,10.22743 -112.2732,11.83471 -0.31226,0.31226 0.58453,1.72002 1.99286,3.12835 6.60463,6.60463 -0.0383,18.13136 -8.44295,14.65005 -5.3454,-2.21414 -7.04637,-9.8034 -3.19488,-14.25466 0.83573,-0.96587 1.25361,-2.02204 0.92861,-2.34703 -0.325,-0.325 -4.33082,0.0153 -8.90184,0.75613 -9.60668,1.55704 -10.49701,2.73339 -6.55953,8.66675 7.60597,11.46135 63.27314,31.1434 105.2312,37.20624 13.04711,1.88527 29.2026,2.44882 31.34133,1.09326 z m 97.0976,-1.61117 c 30.32353,-3.99946 79.45541,-19.5814 95.30333,-30.22499 4.57072,-3.06973 8.75774,-8.51232 8.75774,-11.38394 0,-1.91868 -3.84937,-3.41494 -11.70861,-4.55117 l -4.2086,-0.60845 1.9586,3.84169 c 2.64564,5.18927 2.47399,7.05728 -0.96447,10.49573 -3.45047,3.45048 -6.79084,3.72255 -10.44206,0.8505 -3.6914,-2.90365 -3.76111,-9.89208 -0.13486,-13.51833 1.375,-1.375 2.5,-2.65059 2.5,-2.83465 0,-0.18405 -5.2875,-0.64542 -11.75,-1.02526 -12.32443,-0.72438 -34.21827,-2.98855 -67.75,-7.00642 -29.84349,-3.57593 -34.0068,-3.85238 -35.20441,-2.33758 -1.18465,1.49839 -2.63339,59.10438 -1.51589,60.2762 0.94324,0.9891 21.40622,-0.1594 35.15923,-1.97333 z M 226.85713,928.29074 c 0.86429,-0.86428 1.57143,-1.95714 1.57143,-2.42857 0,-1.11089 -2.88911,-4 -4,-4 -1.11089,0 -4,2.88911 -4,4 0,1.11089 2.88911,4 4,4 0.47143,0 1.56429,-0.70714 2.42857,-1.57143 z m 297,0 c 0.86429,-0.86428 1.57143,-2.18214 1.57143,-2.92857 0,-0.74643 -0.70714,-2.06429 -1.57143,-2.92857 -0.86428,-0.86429 -2.18214,-1.57143 -2.92857,-1.57143 -0.74643,0 -2.06429,0.70714 -2.92857,1.57143 -0.86429,0.86428 -1.57143,2.18214 -1.57143,2.92857 0,0.74643 0.70714,2.06429 1.57143,2.92857 0.86428,0.86429 2.18214,1.57143 2.92857,1.57143 0.74643,0 2.06429,-0.70714 2.92857,-1.57143 z M 168.73555,898.31922 c -3.15173,-1.6303 -21.55262,-22.22695 -146.30699,-163.76564 -44.6962,-50.70957 -61.690923,-70.65085 -62.198757,-72.98278 -0.384316,-1.76474 -1.412785,-24.80863 -2.285486,-51.20863 -0.872701,-26.4 -2.047514,-60.15 -2.610694,-75 -1.271785,-33.53453 -1.017007,-43.04185 1.149467,-42.89369 0.854992,0.0585 43.82999,32.25219 95.5,71.5416 51.67001,39.28942 126.79547,96.37469 166.94547,126.85616 79.32516,60.22286 81.06821,61.71196 107.09961,91.49593 19.4523,22.25645 24.30023,28.46314 25.38516,32.5 1.1944,4.44419 3.78572,34.0428 4.65135,53.12879 l 0.66348,14.6288 -2.57234,1.68546 c -1.41479,0.92701 -4.9697,1.90171 -7.8998,2.16601 -79.17407,7.14156 -145.79558,12.61269 -158.32746,13.00227 -13.58606,0.42234 -16.48173,0.2482 -19.19301,-1.15428 z m 27.25563,-7.93517 c 8.76556,-0.81296 44.36833,-3.9679 79.11728,-7.01097 34.74894,-3.04308 64.57742,-5.81237 66.28551,-6.15399 1.70809,-0.34162 3.53491,-1.42325 4.05959,-2.40363 0.95805,-1.79013 -0.11453,-27.88105 -1.98501,-48.28602 -1.05963,-11.5595 0.35011,-9.36262 -23.77588,-37.0512 -21.45271,-24.62053 -30.09971,-33.54323 -41.26411,-42.5798 -9.94718,-8.05133 -126.31334,-97.70157 -211,-162.55757 -67.15477,-51.42946 -99.053104,-75.4787 -100.113151,-75.4787 -1.318649,0 -1.075976,27.7432 0.612298,70 2.398823,60.04153 3.389759,76.74899 4.742593,79.96147 1.24197,2.94923 28.89741,34.88863 121.68711,140.53704 67.7558,77.14532 81.75356,92.50149 84.31884,92.50149 0.75765,0 8.54937,-0.66515 17.31493,-1.47812 z m -17.46746,-6.3126 C 171.88444,877.07101 94.25484,789.81692 52.00073,741.86217 28.98135,715.73717 8.78383,692.91155 7.11735,691.13856 l -3.02996,-3.2236 0.18478,-15.7764 c 0.56021,-47.82913 3.5814,-114.87864 5.26789,-116.91074 2.82424,-3.403 -0.81011,-5.96394 94.3885,66.51091 95.02558,72.34312 185.22566,142.14792 189.64988,146.76786 2.55743,2.67057 13.18642,14.88745 23.61997,27.14862 22.03276,25.89218 19.90264,20.47461 20.88414,53.11506 0.57627,19.16439 0.46764,21.74607 -0.96503,22.93508 -1.64602,1.36608 -19.33905,3.43933 -73.68896,8.63481 -15.125,1.44584 -38.69121,3.72978 -52.36937,5.07541 -13.67815,1.34563 -25.78532,2.4466 -26.90483,2.4466 -1.11951,0 -3.6533,-1.70583 -5.63064,-3.79072 z m 50.27086,-6.22689 c 29.59324,-2.69812 75.56129,-6.97834 92.63398,-8.62544 10.05266,-0.96983 10,-0.90798 10,-11.74692 0,-11.70084 -1.76747,-33.89279 -2.93625,-36.86696 -0.92178,-2.34564 -30.52282,-37.33178 -39.42232,-46.59413 -2.82779,-2.94309 -9.23527,-8.63433 -14.23885,-12.64721 C 256.19235,746.41554 82.9353,613.94637 39.54118,581.4655 21.08978,567.65447 16.92832,564.94164 15.8713,566.03526 c -1.51568,1.56817 -3.13365,35.53325 -4.11229,86.32691 l -0.63582,33 2.89513,3.5 c 13.59077,16.43029 152.16512,172.80847 163.34341,184.32953 l 8.56683,8.82952 5,-0.59008 c 2.75,-0.32455 19.78971,-1.93851 37.86602,-3.58658 z m -44.01698,-0.51518 c -1.01937,-2.65644 1.79274,-4.09876 9.39494,-4.81864 3.71581,-0.35187 23.85602,-2.42373 44.75602,-4.60415 72.33864,-7.54682 83.55469,-8.4183 85.34198,-6.63101 1.02718,1.02718 1.23242,1.91219 0.59197,2.55264 -1.06227,1.06227 -4.93147,1.49636 -80.43395,9.02397 -27.775,2.76917 -52.40731,5.30457 -54.73848,5.63423 -3.46614,0.49016 -4.36129,0.27932 -4.91248,-1.15704 z M -23.05776,639.69427 c -6.418689,-5.04894 -6.399212,-13.09138 0.0454,-18.74983 4.47283,-3.9272 9.05811,-4.1167 13.29743,-0.54954 6.06608,5.10427 6.56572,14.2513 1.03275,18.90699 -3.97004,3.34057 -10.40431,3.51619 -14.37559,0.39238 z m 9.98632,-9.3321 c 0,-3.77058 -0.17068,-4 -2.97592,-4 -2.32931,0 -3.18149,0.58454 -3.92203,2.69025 -1.22402,3.4805 0.73287,6.0264 4.31235,5.61031 2.29977,-0.26733 2.5856,-0.74274 2.5856,-4.30056 z m -6.68647,-32.35502 c -4.07827,-2.04929 -7.81353,-7.49511 -7.81353,-11.39173 0,-4.01913 2.64816,-9.2927 5.65608,-11.26356 5.23876,-3.43256 11.56647,-1.45272 15.38792,4.81464 5.92435,9.71621 -3.66511,22.64713 -13.23047,17.84065 z m 6.99294,-11.85911 c -0.40209,-4.70132 -2.92963,-6.38938 -5.74793,-3.83884 -2.60696,2.35926 -2.61934,4.99217 -0.0356,7.57589 1.63139,1.63139 2.4165,1.81228 4.05646,0.93459 1.57304,-0.84186 1.96415,-1.89978 1.72709,-4.67164 z m -9.07645,-33.27895 c -5.78859,-4.56302 -7.32536,-11.87808 -3.73313,-17.76983 2.49325,-4.08927 7.79331,-6.75755 11.54988,-5.81471 5.95273,1.49404 10.6199,9.79308 9.0423,16.07876 -1.91389,7.62554 -11.36773,11.83446 -16.85905,7.50578 z m 9.26998,-9.96032 c 0,-4.38834 -0.97955,-6.0466 -3.57181,-6.0466 -4.3744,0 -6.01402,6.77583 -2.27358,9.39574 2.98475,2.0906 5.84539,0.45158 5.84539,-3.34914 z m 556,356.32045 c -1.925,-0.22179 -35,-3.09147 -73.5,-6.37706 -38.5,-3.28559 -72.45446,-6.42297 -75.45435,-6.97196 -8.7874,-1.60812 -8.5655,-0.85484 -7.13473,-24.21977 1.71985,-28.08571 3.7472,-46.23647 5.55485,-49.73206 1.86586,-3.60818 7.81257,-10.85035 25.48765,-31.04002 18.08105,-20.65339 23.62855,-26.13853 36.04658,-35.64139 236.45524,-180.94657 330.66091,-252.68762 331.9285,-252.77565 2.53964,-0.17638 2.47273,13.99522 -0.45039,95.39086 -2.58218,71.90188 -2.74895,74.60418 -4.78216,77.48727 -3.48601,4.94318 -200.61443,228.42763 -204.65095,232.01273 -1.99934,1.77575 -3.78193,2.01515 -15.89841,2.13515 -7.50562,0.0743 -15.22159,-0.0463 -17.14659,-0.2681 z m 26.17721,-11.11705 c 9.18455,-8.23388 173.97668,-194.8692 192.92494,-218.49713 7.72239,-9.6296 8.6842,-11.29335 9.24953,-16 0.86399,-7.19313 0.8087,-15.75428 -0.10168,-15.74628 -0.4125,0.004 -2.1,0.90066 -3.75,1.99341 -9.55321,6.32684 -21.42113,-3.03805 -17.36282,-13.70089 1.64265,-4.31594 6.85525,-8.29911 10.86066,-8.29911 1.48615,0 4.54422,1.33443 6.79571,2.96541 3.59152,2.60168 4.1581,2.755 4.61926,1.25 1.08569,-3.54317 4.972,-107.54607 4.14225,-110.85206 -0.4256,-1.69573 -1.1272,-2.35778 -2.10217,-1.98365 -2.15441,0.82673 -96.37624,72.73597 -219.45289,167.48446 -86.45235,66.55389 -98.96991,76.44074 -106.1126,83.81181 -7.47773,7.71684 -41.98652,46.90523 -46.19617,52.46066 -3.24785,4.28616 -4.19995,12.07208 -5.319,43.49693 -0.65037,18.26345 -0.59474,19.15949 1.22321,19.70384 4.29923,1.28733 51.62723,6.10778 123.90456,12.61992 42.92886,3.86786 41.55048,3.88875 46.67721,-0.70732 z m -19.67721,-1.93523 c -2.2,-0.19197 -15.25,-1.25493 -29,-2.36214 -34.95141,-2.81445 -108.49052,-10.94237 -111.5,-12.32356 -2.23349,-1.02505 -2.53459,-1.83931 -2.82448,-7.63822 -0.47242,-9.45028 1.71335,-41.90133 2.98902,-44.37655 1.24925,-2.42395 6.61304,-9.09293 29.89768,-37.17274 l 16.63307,-20.05844 71.90235,-53.52186 C 678.53019,596.69296 728.1763,560.25009 734.83453,556.91515 c 5.88996,-2.95013 7.15753,-1.74494 7.94346,7.5525 0.83671,9.89832 0.83774,107.76221 10e-4,116.61912 l -0.63513,6.7246 -23.06131,26.2754 c -12.68372,14.45147 -49.63221,56.42658 -82.10776,93.27803 -32.47555,36.85144 -60.99835,69.25144 -63.38398,72 -2.38564,2.74855 -5.31064,5.54392 -6.5,6.21193 -2.05196,1.1525 -8.32058,1.37172 -17.16248,0.60021 z m 18.76679,-10.41429 c 2.66795,-2.97026 8.98685,-10.1195 14.04201,-15.88719 5.05516,-5.76769 22.69848,-25.79269 39.20737,-44.5 25.36695,-28.74495 101.90032,-116.09275 110.51401,-126.13001 l 2.67468,-3.11672 0.58271,-27.38328 c 0.76451,-35.92607 -0.39159,-92.08839 -1.90597,-92.59102 -1.2998,-0.4314 -19.50474,12.75956 -101.8816,73.82156 -141.86647,105.15877 -172.75842,128.59859 -178,135.0607 -2.75,3.39034 -11.45876,14.07554 -19.3528,23.74487 -20.3564,24.93436 -18.89925,22.1754 -20.11258,38.08115 -1.26427,16.57361 -1.3271,28.70066 -0.15247,29.42662 1.12744,0.6968 24.26013,3.31219 80.11785,9.05815 24.475,2.51769 47.65,4.97844 51.5,5.46834 3.85,0.48989 9.45609,0.76845 12.45798,0.61901 5.21219,-0.25946 5.67644,-0.51491 10.30881,-5.67218 z m -79.68641,-3.96297 c -37.3558,-3.76954 -68.5183,-7.08344 -69.25,-7.36423 -1.84889,-0.70948 -1.66625,-3.23042 0.28837,-3.98048 2.34064,-0.89818 125.44255,10.72819 138.21109,13.05337 3.63698,0.6623 5.2781,3.03867 3.06588,4.43944 -1.74702,1.1062 6.64224,1.81944 -72.31534,-6.1481 z M 757.24209,598.00715 c -4.05898,-2.03959 -7.81353,-7.48989 -7.81353,-11.34252 0,-10.37562 12.18079,-16.77552 18.98265,-9.97366 4.08265,4.08266 5.32254,9.36798 3.35261,14.29132 -2.685,6.71049 -9.03459,9.78209 -14.52173,7.02486 z m 7.8508,-9.71263 c 1.93175,-5.03404 -3.61593,-9.44529 -6.85226,-5.4486 -2.33639,2.88533 -2.28678,4.54154 0.21085,7.03917 1.6314,1.6314 2.41649,1.81228 4.05648,0.93458 1.11847,-0.59858 2.28169,-1.7349 2.58493,-2.52515 z m -9.47451,-35.45798 c -3.34665,-2.04041 -6.18982,-7.11879 -6.18982,-11.0561 0,-3.62797 4.12068,-9.74765 7.71066,-11.45121 4.4186,-2.09676 8.52939,-1.15893 11.7626,2.68353 5.04129,5.99123 4.67162,13.43305 -0.92391,18.59941 -4.12261,3.80641 -7.56512,4.14743 -12.35953,1.22437 z m 9.3834,-9.41009 c 1.37405,-5.47465 -3.92591,-8.75423 -7.01652,-4.34177 -2.06148,2.94317 -1.96362,4.37057 0.46622,6.80041 2.45677,2.45677 5.61405,1.2717 6.5503,-2.45864 z m -0.50552,89.30923 c 1.67084,-3.12199 -0.2782,-6.87351 -3.57101,-6.87351 -3.12065,0 -5.09084,4.0213 -3.46165,7.06547 1.40284,2.62123 5.58822,2.50698 7.03266,-0.19196 z M 359.92856,787.7097 c -3.35492,-1.83122 -19.27507,-17.81402 -27.24033,-27.34753 -7.75935,-9.28708 -17.64009,-17.11477 -28.15247,-22.30289 -7.37966,-3.64205 -10.80733,-7.08176 -11.67713,-11.71816 -0.88253,-4.70429 0.96339,-8.54164 4.74936,-9.87309 3.69198,-1.2984 9.96263,1.38791 36.69438,15.71964 12.30559,6.59741 24.00559,12.57837 26,13.29101 1.9944,0.71264 6.55119,1.31134 10.12619,1.33045 6.30459,0.0337 7.20647,-0.31422 30,-11.57317 33.08583,-16.34287 42.92674,-20.06138 46.6003,-17.60848 2.60342,1.73835 3.55003,5.24917 2.37515,8.80906 -2.18659,6.62544 -6.81692,10.58186 -25.97545,22.19493 -7.12994,4.32186 -10.19243,7.10541 -19,17.26938 -10.15898,11.7235 -18.15779,19.41272 -22.68426,21.8063 -2.75697,1.45787 -19.14597,1.45978 -21.81574,0.003 z m -16.50838,-60.96539 c -15.12039,-7.21482 -28.03403,-13.62732 -28.69698,-14.25 -1.37483,-1.29132 -1.74729,-6.79597 -6.80913,-100.63214 -1.94331,-36.025 -5.54754,-102.51769 -8.0094,-147.76152 -5.34937,-98.31018 -5.33257,-97.47292 -2.02156,-100.78393 4.41933,-4.41933 7.55977,-3.8234 47.54545,9.02224 11.275,3.62216 22.3,6.82964 24.5,7.12772 3.21669,0.43584 9.18944,-1.12894 30.5,-7.99061 37.93044,-12.213 40.05933,-12.58514 45.22944,-7.90626 2.38158,2.1553 2.3434,14.50187 -0.18183,58.79236 -1.06619,18.7 -4.95753,90.475 -8.64744,159.5 -3.6899,69.025 -7.07497,126.5037 -7.52236,127.73045 -0.60614,1.66202 -7.95574,5.80336 -28.83873,16.25 -15.41391,7.71075 -28.36966,14.01955 -28.79057,14.01955 -0.4209,0 -13.1365,-5.90303 -28.25689,-13.11786 z m 44.50838,-4.48272 c 21.95103,-10.70069 29.29286,-15.23254 30.44356,-18.79175 0.55259,-1.70922 2.14454,-23.80767 3.53767,-49.10767 7.575,-137.56695 13.51835,-251.65574 13.75283,-264 l 0.26594,-14 -2.55051,0.25658 c -1.40278,0.14111 -14.22778,3.88184 -28.5,8.31272 -14.27222,4.43089 -27.97449,8.29844 -30.44949,8.59457 -5.39768,0.64582 -9.68346,-0.41397 -41.46073,-10.25252 -19.34328,-5.98886 -24.20495,-7.17424 -25.22806,-6.15114 -1.45543,1.45544 -1.5855,-1.63259 5.19112,123.23979 2.4475,45.1 5.58763,103.6 6.97807,130 1.39044,26.4 2.98266,53.85 3.53827,61 1.0002,12.87121 1.04186,13.02722 4.20459,15.74716 1.75691,1.51094 12.13193,7.26876 23.05559,12.79516 14.71474,7.44436 20.42607,9.87263 22.04117,9.37117 1.19899,-0.37225 8.02998,-3.52859 15.17998,-7.01407 z M 236.87446,698.48323 C 209.95421,678.04203 136.40356,622.20034 73.42856,574.39059 -59.178389,473.71722 -54.573294,477.2907 -54.565279,475.06958 c 0.0066,-1.82206 0.497501,-2.82565 6.705245,-13.70741 2.196319,-3.85 5.6753,-10.825 7.731069,-15.5 2.055769,-4.675 11.541916,-24.25 21.080325,-43.5 15.99298,-32.27632 23.4772,-48.39886 23.4772,-50.57467 0,-1.02624 -14.31468,-13.3879 -36.612026,-31.61688 -8.861614,-7.24472 -17.465251,-14.89038 -19.119194,-16.99034 -2.872956,-3.64771 -59.52881,-103.92529 -66.20765,-117.1837 l -3.20662,-6.36559 1.18667,-31.13441 1.18668,-31.13441 7.45665,-19.499999 c 9.62734,-25.176629 12.857164,-31.658501 17.668017,-35.457647 3.632385,-2.868507 4.318089,-3.033158 12,-2.881444 4.53949,0.08965 22.539596,2.608268 40.647473,5.687484 17.875,3.039615 35.425,5.80119 39,6.136833 11.53617,1.083086 12.75431,1.497085 21.6934,7.372713 9.68325,6.364773 54.28209,37.7758 63.8066,44.93909 8.15248,6.1314 8.5,6.69164 8.5,13.70297 0,9.63869 0.15931,9.71024 15.5,6.96191 7.15,-1.28095 19.975,-3.95863 28.5,-5.9504 37.98317,-8.87433 233.36955,-52.511509 235.1214,-52.511509 1.66811,0 141.80857,31.246449 224.8786,50.140119 28.75799,6.54079 51.48732,10.80371 52.88136,9.91797 0.4831,-0.30695 1.0625,-3.87127 1.28755,-7.92072 0.38337,-6.89791 0.62764,-7.56166 3.87014,-10.51592 4.04271,-3.68333 61.59618,-44.58417 71.28241,-50.657415 6.14935,-3.85563 7.39877,-4.230102 18.38809,-5.511221 6.48475,-0.755982 26.86545,-3.895671 45.29045,-6.977086 36.16789,-6.048752 40.68661,-6.279427 46.53283,-2.375438 4.43527,2.961783 9.50676,13.076402 18.85045,37.595523 l 6.55295,17.195817 1.02181,24.80418 c 0.56199,13.64231 1.02634,28.18375 1.03188,32.31433 l 0.0101,7.51014 -12.77656,22.98986 c -35.52599,63.92464 -54.04206,96.13828 -57.54994,100.12344 -2.1342,2.42458 -10.92132,10.13617 -19.52693,17.13686 -23.14666,18.82988 -32.53674,27.1593 -33.57013,29.77821 -1.23434,3.12817 0.9381,8.12604 21.49524,49.45135 9.16546,18.425 19.02513,38.78126 21.9104,45.23612 2.88526,6.45487 7.21212,15.00487 9.61525,19 2.40313,3.99514 4.37683,8.00948 4.386,8.92076 0.0215,2.138 -2.62244,4.28767 -44.98333,36.57379 -19.525,14.88133 -93.55,71.43072 -164.5,125.66531 -86.14565,65.85023 -129.66441,98.52457 -131,98.35618 -1.91638,-0.24162 -1.98872,-0.90019 -1.7302,-15.75216 0.33937,-19.49761 7.90632,-303.5844 9.21607,-346 1.28223,-41.52458 1.30247,-39.95212 -0.52318,-40.65269 -0.84552,-0.32446 -22.19647,7.19091 -47.44655,16.70081 l -45.90924,17.29073 -12.30345,-4.60476 c -6.76692,-2.53262 -25.12847,-9.35034 -40.80347,-15.15048 -15.675,-5.80014 -30.35341,-11.52506 -32.61868,-12.72204 -6.85676,-3.62314 -7.36651,-2.80873 -6.78436,10.83907 0.27682,6.48965 2.49424,88.52436 4.9276,182.29936 2.43337,93.775 4.72003,178.86663 5.08147,189.09251 0.55363,15.66308 0.43097,18.67932 -0.77853,19.14344 -0.87764,0.33679 -20.46116,-13.89556 -50.3816,-36.61489 z m 39.48261,-13.87106 c -0.10049,-45.33187 -1.24242,-76.21839 -2.89138,-78.20527 -1.4968,-1.80352 -32.89058,-24.0572 -56.27335,-39.88971 -8.65492,-5.86026 -16.76431,-10.65502 -18.02085,-10.65502 -1.55175,0 -5.16501,2.9101 -11.26378,9.07179 -4.93853,4.98948 -10.21144,9.96642 -11.71758,11.05985 l -2.73842,1.98807 -9.26158,-3.96949 c -9.18992,-3.93878 -63.47234,-29.21483 -83.91477,-39.07406 -5.85925,-2.82587 -11.10379,-5.68655 -11.65452,-6.35705 -1.56733,-1.90822 -18.19228,-60.89897 -18.19228,-64.55217 0,-0.98602 1.35,-3.08614 3,-4.66694 1.65,-1.5808 3,-3.63519 3,-4.56531 0,-1.70063 -9.48247,-8.93469 -11.71166,-8.93469 -0.65688,0 -1.64391,1.62822 -2.19339,3.61828 -2.0759,7.5183 -8.00188,9.85809 -12.02237,4.74686 -3.0758,-3.91025 -2.63394,-7.09956 1.52737,-11.02417 4.40585,-4.15526 4.41459,-4.14147 -8.1873,-12.92759 -9.46518,-6.59918 -12.40989,-7.70516 -12.41639,-4.66338 -0.002,0.9625 -0.91161,3.23909 -2.02124,5.0591 -1.78248,2.92361 -2.45188,3.27309 -5.74626,3 -3.1797,-0.26358 -3.9953,-0.85443 -5.53887,-4.01253 -2.07753,-4.25057 -1.31657,-6.74817 3.18311,-10.44751 2.47049,-2.03107 2.52256,-2.25397 0.93439,-4 -2.46654,-2.71171 -8.47211,-5.6917 -10.16292,-5.04287 -0.80575,0.30919 -3.98049,5.2518 -7.05498,10.98358 -8.45538,15.76338 -24.58949,50.30941 -24.58949,52.65052 0,3.05273 11.46637,12.02721 197,154.18757 102.6756,78.67252 116.12686,88.82243 117.75,88.85051 0.97606,0.0169 1.23433,-7.04606 1.17851,-32.22837 z m 207.9853,20.56747 c 62.12734,-46.56713 289.14985,-220.9814 296.34422,-227.67197 l 2.75803,-2.56489 -1.63223,-4.2903 c -3.29726,-8.66682 -28.08917,-58.33658 -29.83031,-59.76403 -1.60865,-1.31883 -2.27758,-1.20574 -6.36447,1.07595 -6.26869,3.49977 -7.0437,4.99581 -4.35725,8.41106 4.3847,5.57425 1.85261,13.48671 -4.31592,13.48671 -3.30108,0 -4.88952,-1.29469 -8.14855,-6.64167 -1.09237,-1.7922 -1.2525,-1.79499 -4.5,-0.0784 -5.13211,2.71268 -16.86733,11.5762 -16.86733,12.73971 0,0.56643 1.10147,1.44864 2.4477,1.96048 3.56414,1.35508 5.92006,5.41516 5.08463,8.76259 -0.99008,3.96707 -3.42344,6.25729 -6.64836,6.25729 -3.63961,0 -6.57621,-3.21889 -7.40341,-8.11508 -0.361,-2.13671 -0.87139,-3.88492 -1.1342,-3.88492 -2.35883,0 -13.34636,8.54533 -13.34636,10.37986 0,0.68528 1.35,2.53934 3,4.12014 1.73322,1.66053 3,3.90762 3,5.32159 0,5.8905 -16.38184,61.92381 -18.83515,64.42475 -1.64346,1.67537 -29.11339,14.95263 -66.16485,31.97998 -28.77118,13.22207 -37.16601,16.77368 -39.64747,16.77368 -1.67896,0 -5.15947,-2.90539 -12.08379,-10.08707 -5.34908,-5.54788 -10.49334,-10.49795 -11.43169,-11.00014 -3.11649,-1.66789 -3.74771,-1.26541 -53.10062,33.85836 -14.76766,10.50993 -21.94789,16.22318 -22.33695,17.77333 -0.823,3.27909 -1.04686,10.48957 -1.93125,62.20552 -0.65207,38.13017 -0.55827,46.25 0.53423,46.25 0.72884,0 8.33894,-5.25714 16.91135,-11.68253 z M 478.16724,595.6831 c 39.65638,-27.96832 60.26132,-43.13907 60.26132,-44.36845 0,-1.97096 -3.8718,-5.7165 -5.32732,-5.15359 -1.87988,0.72705 -60.94345,40.7956 -63.42268,43.02577 -1.79832,1.61766 -2.25,3.09308 -2.25,7.34965 0,2.92913 0.44491,5.32569 0.98868,5.32569 0.54377,0 4.93127,-2.78058 9.75,-6.17907 z m -201.94277,-0.85349 c 0.24055,-3.68461 -0.1336,-4.91955 -2,-6.6012 -4.42246,-3.98472 -63.95252,-42.36624 -65.71038,-42.36624 -0.97656,0 -2.59004,0.9 -3.58553,2 -1.73779,1.92024 -1.73879,2.07866 -0.0249,3.97254 0.98182,1.0849 11.51407,8.9009 23.40499,17.36889 48.04807,34.21691 47.37829,33.8587 47.91577,25.62601 z m 222.56551,-35.01537 c 15.20122,-10.56938 27.63858,-19.80691 27.63858,-20.52786 0,-1.46469 -3.78385,-4.42421 -5.6565,-4.42421 -1.95561,0 -43.95743,29.08299 -49.5935,34.33963 -2.14718,2.00263 -2.75,3.47562 -2.75,6.71961 0,3.0943 0.34748,4.0214 1.36142,3.63231 0.74879,-0.28734 13.79879,-9.1701 29,-19.73948 z m -224.54883,15.23118 c 0.39682,-4.01484 -1.01056,-5.33909 -19.81259,-18.64236 -19.43892,-13.7539 -32.92155,-22.54089 -34.58639,-22.54089 -1.84883,0 -4.95914,4.86505 -3.81226,5.96302 3.04599,2.91608 56.03798,38.9917 56.87379,38.71825 0.56367,-0.18441 1.16553,-1.75852 1.33745,-3.49802 z m -1.68132,-67.883 c -2.38459,-109.81836 -4.29448,-176.76948 -5.08282,-178.17816 -0.99486,-1.77772 -1.86493,-2.12447 -73.54845,-29.31117 -69.3847,-26.31484 -86.17714,-32.78882 -93.64541,-36.10306 -5.46645,-2.42587 -5.68044,-2.66858 -6.75,-7.6558 -0.60753,-2.83278 -1.10459,-7.00335 -1.10459,-9.26795 0,-2.26459 -0.3375,-3.7802 -0.75,-3.36802 -0.4125,0.41218 -1.21558,8.54051 -1.78462,18.06296 l -1.03461,17.31354 -6.9528,7.85371 c -3.82404,4.31953 -18.88347,21.04499 -33.46539,37.16767 -33.84583,37.42207 -35.66095,39.5508 -38.43985,45.08132 -4.07132,8.10266 -4.09447,8.8147 -0.39889,12.26906 3.68167,3.44136 17.26367,12.83565 18.55743,12.83565 0.45187,0 0.64935,-1.80598 0.43885,-4.01329 -0.53971,-5.65941 1.81244,-8.98671 6.35293,-8.98671 4.36483,0 7.47695,2.93252 7.47695,7.04545 0,2.98517 -2.26338,5.97787 -6.55878,8.67219 -1.86215,1.16805 -1.81902,1.32118 1.05878,3.75963 1.65,1.39809 8.17483,6.02515 14.49963,10.28236 6.3248,4.2572 15.49774,10.55443 20.38432,13.99383 4.88657,3.4394 11.34968,7.66378 14.36245,9.38751 l 5.47776,3.13406 9.33643,-4.72779 c 5.13503,-2.60029 12.29523,-6.71218 15.91156,-9.13752 3.61633,-2.42535 7.415,-4.40972 8.44149,-4.40972 2.62852,0 10.30595,5.84994 45.08636,34.35426 47.42376,38.86618 68,56.74018 68,59.06969 0,0.6236 -2.925,4.03283 -6.5,7.57605 -3.575,3.54322 -6.5,7.20448 -6.5,8.13612 0,2.35824 6.36569,7.70844 23.03922,19.36388 17.96488,12.55815 23.19018,15.6706 24.35416,14.50662 0.54148,-0.54148 0.436,-22.55607 -0.26211,-54.70637 z m -28.05896,-64.3724 c -21.3456,-8.6689 -195.81916,-91.23025 -198.53728,-93.94837 -1.51265,-1.51266 -2.03503,-3.33922 -2.03503,-7.11573 0,-4.84022 0.245,-5.30598 5.17609,-9.84013 6.64283,-6.1081 16.99396,-13.02362 19.49371,-13.02362 1.06805,0 12.37927,4.68555 25.13605,10.41234 12.75678,5.72679 54.46175,24.41689 92.6777,41.53356 38.21596,17.11666 69.81494,31.45259 70.21996,31.85761 1.05156,1.05156 2.8277,18.11074 3.08109,29.59282 0.20255,9.1785 0.0746,9.87544 -2.14538,11.68224 -3.10072,2.52366 -4.27377,2.42035 -13.06691,-1.15072 z m 2.52272,-15.45044 c 0.7306,-2.91098 -0.37082,-14.7575 -1.69618,-18.24347 -1.04077,-2.73741 -6.87588,-5.60036 -52.89885,-25.95437 C 132.93235,356.82909 85.36878,336.24043 75.1502,332.3759 l -4.77835,-1.8071 -5.57782,3.84159 c -6.22186,4.28515 -7.30202,5.9438 -5.22402,8.0218 2.9323,2.9323 182.04592,87.2723 185.5895,87.38933 0.67702,0.0224 1.51585,-1.09452 1.86408,-2.48194 z M 61.46111,414.40139 c -0.66679,-0.80343 -1.45155,-3.24422 -1.74392,-5.42398 -0.44852,-3.34399 -0.1194,-4.37538 2.10655,-6.60133 1.93069,-1.93069 3.23701,-2.46408 4.87147,-1.98912 3.24146,0.94195 5.73335,4.25881 5.73335,7.63145 0,5.68022 -7.78867,10.21317 -10.96745,6.38298 z M 177.42856,360.5361 c -38.775,-17.19823 -77.63471,-34.398 -86.35491,-38.22172 -8.7202,-3.82371 -16.09249,-7.54507 -16.38287,-8.26967 -0.77668,-1.93808 1.13979,-4.99769 9.94333,-15.8744 13.0823,-16.16307 15.27857,-18.30814 18.74518,-18.30814 3.84934,0 18.37888,5.43417 88.93273,33.26158 41.1143,16.21605 56.77119,22.82716 57.81521,24.41241 2.01961,3.06662 3.07449,11.83332 3.88031,32.24779 0.75449,19.11413 0.23084,22.10223 -3.86416,22.04994 -1.21815,-0.0156 -33.93982,-14.09956 -72.71482,-31.29779 z m 61.81169,9.48158 c 0.544,-7.55228 -1.43888,-20.23268 -3.47291,-22.20906 -1.01133,-0.98267 -6.78878,-3.89966 -12.83878,-6.48221 C 207.4628,334.72457 122.34887,300.65162 114.0949,297.75793 l -6.83367,-2.39576 -6.41633,6.75913 c -3.52899,3.71752 -6.41634,7.46122 -6.41634,8.31933 0,1.01021 4.14208,3.51661 11.75,7.10999 15.6237,7.37942 78.45794,35.22192 104.75,46.41581 11.55,4.91743 21.9,9.35567 23,9.86274 3.69708,1.70426 4.98074,0.78316 5.31169,-3.81149 z m 248.18831,182.37284 c 20.78111,-14.07414 29.40841,-20.6704 29.81519,-22.79609 0.21115,-1.10337 -2.13345,-4.32802 -6.23845,-8.58006 -3.61721,-3.74678 -6.57674,-7.53597 -6.57674,-8.42043 0,-2.59841 18.5668,-18.65106 75.30299,-65.10613 29.17525,-23.88843 35.47388,-28.62564 38.06085,-28.62564 0.86559,0 4.71077,2.0293 8.54485,4.50956 8.32444,5.38505 23.61251,13.49044 25.44514,13.49044 1.92665,0 65.39378,-43.04709 78.68583,-53.3693 5.76794,-4.4792 6.13528,-5.00598 5.54591,-7.95285 -0.34715,-1.73575 -2.00271,-5.41085 -3.67903,-8.16688 -3.30536,-5.43437 -5.03294,-7.41226 -48.90654,-55.99292 -16.225,-17.96572 -29.80587,-33.4194 -30.17971,-34.3415 -0.37385,-0.9221 -0.71135,-8.31405 -0.75,-16.42655 -0.0709,-14.87503 -1.34099,-19.72952 -2.32441,-8.88418 -0.29254,3.2262 -1.02788,6.79258 -1.63408,7.92529 -1.29337,2.41667 -14.12353,7.57178 -102.6118,41.22907 -33.55,12.76104 -63.01621,24.16442 -65.48047,25.34085 -3.71383,1.77298 -4.59457,2.73784 -5.14735,5.63897 -0.36678,1.925 -1.42179,34.55 -2.34446,72.5 -3.15052,129.58299 -3.52046,143.0051 -4.11478,149.29185 -0.64604,6.83388 -0.18251,9.20103 1.80568,9.22106 0.70476,0.007 8.25638,-4.71095 16.78138,-10.48456 z m -0.5,-107.7233 c -1.1,-0.62377 -2.33061,-1.62258 -2.73469,-2.21959 -1.90058,-2.80801 0.16324,-35.57764 2.55494,-40.56777 1.4958,-3.12087 -5.63092,0.16789 97.26811,-44.88623 52.59306,-23.02777 88.30637,-38.13146 90.1634,-38.13146 3.49772,0 16.51371,9.08497 21.99824,15.35445 3.73273,4.26696 4.35718,9.61982 1.58408,13.57897 -1.93843,2.7675 -18.29252,10.80563 -97.83408,48.08606 -75.42921,35.35301 -107.65472,50.00749 -109.84129,49.95011 -0.63729,-0.0167 -2.05871,-0.54077 -3.15871,-1.16454 z m 21.24373,-19.19211 c 30.46483,-13.69898 145.11981,-67.52364 164.16137,-77.06539 7.20219,-3.60902 13.0949,-6.96202 13.0949,-7.45111 0,-1.23298 -6.40109,-6.73537 -10.00119,-8.59705 -2.82303,-1.45985 -3.41953,-1.3648 -11.7365,1.87003 -10.85994,4.22391 -40.18926,16.88736 -94.76231,40.91532 -53.20547,23.42583 -68.62799,30.49355 -70.47514,32.29685 -1.86104,1.81685 -2.91283,22.41841 -1.14455,22.41841 0.60893,0 5.49747,-1.97418 10.86342,-4.38706 z m 175.71082,-22.06749 c -3.98347,-3.98346 -2.85916,-10.68072 2.11021,-12.57007 3.29264,-1.25186 6.98812,0.53096 8.45844,4.08062 1.37059,3.3089 0.61492,6.27159 -2.28989,8.97783 -2.81786,2.62524 -5.3123,2.47809 -8.27876,-0.48838 z M 489.32223,389.11217 c -1.78536,-4.64573 0.79165,-46.92498 3.12604,-51.28683 0.64383,-1.20301 19.10111,-9.03609 54.22817,-23.01387 90.37186,-35.96084 91.82655,-36.48597 95.60157,-34.51141 2.74671,1.4367 21.18795,23.13836 24.57573,28.92074 1.05885,1.80728 1.67589,3.93561 1.3712,4.72962 -0.3047,0.79402 -21.42103,10.63611 -46.92519,21.87132 -25.50415,11.23521 -64.56809,28.44053 -86.80876,38.23404 -22.24066,9.79352 -41.26429,17.80639 -42.27475,17.80639 -1.08133,0 -2.27198,-1.1314 -2.89401,-2.75 z m 48.47915,-27.65859 c 29.06528,-12.52039 83.67932,-36.58729 102.31433,-45.08712 4.50293,-2.05388 8.42394,-4.3514 8.71335,-5.1056 0.64369,-1.67743 -9.63474,-14.02087 -12.40823,-14.90114 -2.30862,-0.73273 -7.97927,1.3222 -52.39993,18.98869 -47.30703,18.81442 -74.87219,30.42139 -76.84756,32.35852 -1.30181,1.27661 -2.03946,4.61967 -2.85562,12.9418 -1.116,11.37963 -0.8763,14.21344 1.20227,14.21344 0.63482,0 15.16144,-6.03386 32.28139,-13.40859 z m 174.55026,21.48551 c -1.6077,-1.60769 -2.92308,-3.8923 -2.92308,-5.07692 0,-2.42488 5.07909,-8 7.28822,-8 0.79313,0 2.62775,0.93266 4.07692,2.07258 3.53887,2.78368 3.62136,8.03183 0.18031,11.47287 -3.19722,3.19723 -5.05771,3.09614 -8.62237,-0.46853 z M 68.44862,450.338 c 0.69572,-0.83829 1.08832,-1.68537 0.87244,-1.88239 -0.21587,-0.19703 -15.4675,-11.45728 -33.8925,-25.02278 -18.425,-13.56551 -33.66072,-25.1256 -33.85716,-25.68909 -0.19644,-0.56349 0.66839,-2.11619 1.92185,-3.45043 l 2.27902,-2.4259 3.4448,2.03248 c 1.89464,1.11787 18.54957,12.43033 37.01096,25.13881 18.46139,12.70848 34.30283,23.29897 35.2032,23.53442 0.90037,0.23545 2.2006,-0.25095 2.88939,-1.08088 1.484,-1.78812 -1.09693,-3.78911 -36.39206,-28.21465 C 6.97465,384.93597 4.63951,383.44221 3.18072,384.6529 c -2.14713,1.78196 -10.06722,17.89047 -9.35936,19.03582 0.71401,1.1553 28.38606,20.8958 52.6072,37.52859 15.70712,10.78616 19.37648,12.30601 22.02006,9.12069 z m 621.35262,-4.62411 c 19.16817,-12.91193 53.21425,-37.52883 57.41301,-41.51229 l 4.38544,-4.16057 -4.83556,-9.33943 c -3.14457,-6.07343 -5.3873,-9.3009 -6.41328,-9.22926 -0.86775,0.0606 -19.89621,13.08654 -42.28548,28.94655 -27.48393,19.46893 -40.61224,29.341 -40.41373,30.38982 0.16171,0.8544 1.43096,1.68652 2.82055,1.84914 1.89486,0.22176 7.76797,-3.37401 23.49144,-14.38248 57.88541,-40.5273 54.44292,-38.55987 57.49412,-32.85866 1.22414,2.28732 1.12295,2.73794 -1.08989,4.85384 -1.34161,1.28283 -16.3893,12.56498 -33.4393,25.07143 -17.05,12.50645 -31.38829,23.10056 -31.86287,23.54246 -0.47457,0.44191 -0.56052,1.29267 -0.19098,1.8906 1.50084,2.42841 6.14648,0.85321 14.92653,-5.06115 z M 388.62173,347.9626 c 38.52717,-13.93856 243.13097,-91.15023 247.16644,-93.27361 1.17721,-0.61943 2.471,-1.62136 2.87508,-2.22652 1.91909,-2.87411 0.061,-92.70463 -1.95935,-94.72496 -1.94698,-1.94698 -51.91623,-13.5511 -212.77534,-49.41179 -56.18442,-12.525327 -50.39513,-12.219482 -84.5,-4.46408 -12.375,2.81405 -26.775,6.03313 -32,7.15351 -5.225,1.12038 -25.25,5.61398 -44.5,9.98578 -19.25,4.3718 -39.95,9.02354 -46,10.3372 -22.55413,4.89728 -87.39878,19.7262 -98.37109,22.49588 -6.2541,1.57869 -11.82178,3.32103 -12.37262,3.87187 -0.95923,0.95923 -2.59001,48.83684 -2.7047,79.40629 -0.0455,12.12283 0.16894,13.97053 1.81196,15.61355 2.11967,2.11967 9.23048,4.95064 78.63645,31.30693 93.0849,35.34814 185.2008,69.68367 187.19317,69.77489 0.65624,0.03 8.53124,-2.60018 17.5,-5.84494 z m -23.19317,-98.96384 c -9.9247,-3.9034 -120.16762,-52.96833 -129.5,-57.63552 -9.2687,-4.63534 -10.02258,-5.23424 -10.30877,-8.18951 -0.24798,-2.56071 0.23558,-3.5451 2.45612,-5 2.63649,-1.72743 9.41228,-1.81156 145.90514,-1.81156 153.85493,0 146.44751,-0.25028 146.44751,4.94813 0,4.76078 3.56242,2.96313 -76,38.35058 -27.225,12.10903 -53.74234,24.08301 -58.92742,26.60885 -10.27669,5.00615 -13.25372,5.4109 -20.07258,2.72903 z m 41,-24.9717 c 44.93675,-19.2506 76.5,-33.55865 76.5,-34.67848 0,-1.41841 -35.80099,-2.20211 -107.58753,-2.35513 -72.37064,-0.15427 -116.13662,0.69626 -115.61975,2.24688 0.39518,1.18553 13.54958,7.2684 53.60854,24.78972 49.32425,21.57384 55.26277,23.93303 59.09874,23.47809 1.925,-0.2283 17.225,-6.29478 34,-13.48108 z m -287.5,-42.37271 c -3.26792,-1.87415 -4.43639,-4.05818 -4.43639,-8.29218 0,-5.65917 3.61748,-9.5 8.94757,-9.5 3.02173,0 7.98882,5.26797 7.98882,8.47274 0,3.78756 -2.44169,7.95185 -5.47206,9.33257 -3.21346,1.46415 -4.45608,1.46183 -7.02794,-0.0131 z m 494.61007,-0.18769 c -5.29057,-2.93233 -6.76831,-10.69803 -2.75347,-14.46978 1.29614,-1.21765 3.90853,-2.46575 5.80533,-2.77356 4.90828,-0.79651 9.83807,3.3593 9.83807,8.29349 0,4.52384 -1.38102,6.97391 -4.97998,8.83501 -3.5259,1.82331 -4.79428,1.84172 -7.90995,0.11484 z m 5.34722,-7.53539 c 0.73955,-1.1966 -1.14162,-2.38223 -2.4736,-1.55902 -1.11836,0.69118 -0.38417,2.48992 1.01631,2.48992 0.48508,0 1.14086,-0.41891 1.45729,-0.9309 z M 220.73092,151.87191 c -7.04506,-2.90618 -6.13206,-16.22299 1.30614,-19.05099 5.87061,-2.232 12.60822,5.82453 10.41884,12.45841 -1.87684,5.68688 -6.97356,8.5526 -11.72498,6.59258 z m 4.69764,-9.00974 c 0,-0.55 -0.45,-1 -1,-1 -0.55,0 -1,0.45 -1,1 0,0.55 0.45,1 1,1 0.55,0 1,-0.45 1,-1 z m 278.7714,8.03483 c -6.85649,-5.39332 -3.09785,-18.03483 5.36221,-18.03483 3.89956,0 7.86639,5.05332 7.86639,10.02096 0,7.59386 -7.7748,12.30382 -13.2286,8.01387 z m 6.2286,-8.59385 c 0,-0.24254 -0.45,-0.44098 -1,-0.44098 -0.55,0 -1,0.47656 -1,1.05902 0,0.58246 0.45,0.7809 1,0.44098 0.55,-0.33992 1,-0.81648 1,-1.05902 z M 310.21483,131.33272 c -4.06099,-2.23933 -5.54218,-8.07534 -3.26661,-12.87074 0.96252,-2.02835 3.03935,-4.35464 4.61518,-5.16954 8.22009,-4.25077 15.58095,9.82063 8.56329,16.37002 -3.03335,2.83094 -6.68965,3.44707 -9.91186,1.67026 z m 5.21373,-8.47055 c 0,-0.55 -0.45,-1 -1,-1 -0.55,0 -1,0.45 -1,1 0,0.55 0.45,1 1,1 0.55,0 1,-0.45 1,-1 z m 101,8.73501 c -1.48771,-0.76398 -3.07532,-2.93804 -3.92084,-5.36914 -1.30451,-3.75085 -1.25585,-4.40381 0.59442,-7.97559 4.7425,-9.15502 15.78097,-5.81077 15.78097,4.78106 0,6.57374 -6.98157,11.37422 -12.45455,8.56367 z m 5,-8.73501 c 0,-0.55 -0.45,-1 -1,-1 -0.55,0 -1,0.45 -1,1 0,0.55 0.45,1 1,1 0.55,0 1,-0.45 1,-1 z M 13.60444,334.84906 c 0.37173,-2.46779 0.70923,-7.02924 0.75,-10.13655 0.0734,-5.59893 0.0251,-5.69443 -5.38271,-10.63689 -7.96014,-7.27512 -40.561854,-34.55021 -43.878513,-36.70943 -2.398352,-1.56139 -2.973953,-1.62688 -3.734687,-0.42495 -1.226435,1.93772 -1.171687,19.60076 0.06793,21.91701 2.133019,3.98559 47.739176,41.14861 50.002096,40.74514 0.94188,-0.16794 1.75148,-1.93692 2.17588,-4.75433 z m 736.53827,-8.79513 c 16.32261,-13.03552 31.83207,-26.22768 34.53585,-29.37576 1.35946,-1.58285 1.74695,-3.85398 1.73635,-10.17678 -0.0166,-9.88595 -0.6669,-12.63922 -2.98532,-12.63922 -1.84245,0 -37.1678,28.94195 -47.37771,38.81641 l -5.87667,5.68359 0.61432,7.5 c 0.76031,9.28231 1.48951,12 3.21982,12 0.74113,0 8.00115,-5.31371 16.13336,-11.80824 z m -28.0767,2.61361 c -0.35611,-3.40704 -1.53607,-8.01954 -2.62214,-10.25 -2.01092,-4.12982 -16.17542,-20.62374 -32.03678,-37.30537 -8.24041,-8.66656 -9.04808,-9.25 -12.80506,-9.25 -4.82929,0 -7.17347,0.79371 -7.17347,2.42884 0,2.82669 51.24324,60.57116 53.75168,60.57116 1.28232,0 1.42727,-1.01376 0.88577,-6.19463 z m -689.5199,-4.05537 c 29.70066,-32.48908 43.88245,-49.01229 43.88245,-51.12744 0,-1.57373 -4.20659,-3.62256 -7.43773,-3.62256 -2.57666,0 -16.02458,13.45213 -32.33792,32.34805 -11.69923,13.55135 -12.10322,14.20975 -13.30755,21.68796 -1.00111,6.21633 -0.74375,8.96399 0.83962,8.96399 0.45056,0 4.21307,-3.7125 8.36113,-8.25 z m -2.47783,-32.5 c 15.78369,-16.99682 24.93126,-27.43747 26.22686,-29.93426 0.80506,-1.55147 1.13342,-18.40609 1.13342,-58.17857 0,-51.98911 -0.12518,-56.12052 -1.75,-57.75869 -3.13134,-3.15708 -49.54843,-37.50847 -54.51895,-40.34725 -4.05267,-2.31457 -8.90056,-3.42269 -30.031925,-6.864603 -37.868549,-6.168102 -34.964543,-6.012847 -37.923633,-2.027489 -4.433106,5.970592 -13.535241,23.180892 -15.758925,29.796942 -2.280793,6.78597 -6.004154,29.59704 -6.011961,36.83211 -0.0035,3.26839 1.369604,6.89915 5.862003,15.5 10.729244,20.54148 41.911856,75.17687 45.027085,78.89244 6.682334,7.97008 52.119876,45.83937 55.000466,45.83937 1.05578,0 6.46491,-4.98662 12.74556,-11.75 z m 717.3792,-4.47359 c 28.99041,-24.14283 34.95391,-30.46118 44.1494,-46.77641 17.29869,-30.69246 31.85033,-57.0815 35.71686,-64.77164 4.8885,-9.72273 5.11641,-13.12897 2.15639,-32.22836 -2.55016,-16.45483 -4.71764,-22.19664 -15.16921,-40.18433 -5.60601,-9.648214 -6.18849,-10.089833 -12.26764,-9.300947 -20.68253,2.683952 -54.68561,8.834517 -58.10472,10.510127 -4.12703,2.02254 -30.55073,21.14177 -48.05907,34.7738 l -9.94093,7.74002 -0.31131,40.48067 c -0.17123,22.26436 -0.009,48.26408 0.35942,57.77715 l 0.67075,17.2965 9.54261,10.7035 c 14.18107,15.90625 28.49499,30.20351 30.23869,30.20351 0.84573,0 10.30417,-7.30061 21.01876,-16.22359 z M -48.57144,273.50026 c 0,-8.86184 -1.171492,-11.44745 -22.774523,-50.26584 -18.49236,-33.22883 -26.394762,-46.60408 -27.810704,-47.07111 -1.444303,-0.4764 -6.414773,4.56165 -6.414773,6.50198 0,2.14716 10.033855,20.90632 28.988702,54.19688 21.574677,37.89179 25.986893,45.13312 27.086131,44.45375 0.508842,-0.31448 0.925167,-3.83153 0.925167,-7.81566 z m 861.77092,-25.39855 c 18.86591,-32.85596 30.94811,-54.53389 34.87734,-62.57708 l 2.85174,-5.83753 -2.36078,-1.91247 c -3.38042,-2.73846 -5.69052,-2.37408 -8.47985,1.33754 -4.81079,6.40146 -35.78099,61.48137 -42.3647,75.3448 -2.90629,6.11982 -3.54467,8.61014 -3.54467,13.82787 0,6.47446 0.70838,9.0301 2.24053,8.08319 0.46878,-0.28973 8.01995,-13.00957 16.78039,-28.26632 z m -139.8061,12.8262 c 1.15036,-2.14946 1.25765,-54.76419 0.18237,-89.43134 l -0.64719,-20.86561 -3.91661,-3.38439 c -2.15414,-1.86142 -4.46556,-3.3844 -5.1365,-3.3844 -2.486,0 -2.48206,-0.77451 -0.38822,76.5 0.56631,20.9 1.28357,39.0125 1.5939,40.25 0.75349,3.00464 6.75126,3.23246 8.31225,0.31574 z M 77.78943,260.11217 c 1.80504,-6.37313 4.44278,-113.84635 2.83365,-115.45548 -1.23094,-1.23094 -8.73291,2.68274 -9.80201,5.11359 -0.91832,2.08799 -2.53968,70.86314 -2.17598,92.30086 0.26052,15.35611 0.4454,16.83117 2.28347,18.2182 2.72829,2.0588 6.25337,1.96777 6.86087,-0.17717 z M -103.24136,165.0367 c 2.51645,-4.30876 4.35318,-11.61953 6.169314,-24.55579 1.749642,-12.46264 1.367687,-13.61874 -4.499394,-13.61874 -6.09227,0 -6.43505,1.05712 -6.85194,21.13126 -0.20384,9.81552 -0.0953,18.56384 0.24119,19.44072 0.8597,2.24034 2.77498,1.31098 4.94083,-2.39745 z m 954.44362,-15.02581 c 0.15053,-9.45258 -0.10308,-18.64051 -0.56357,-20.41762 -0.80123,-3.09203 -1.04973,-3.2311 -5.7737,-3.2311 l -4.93643,0 -0.31217,4.34568 c -0.62011,8.63231 3.81505,30.61697 6.99121,34.65481 3.74969,4.76695 4.30375,2.91572 4.59466,-15.35177 z M 692.5979,127.57973 c 31.02816,-22.2977 40.83066,-30.633291 40.83066,-34.720507 0,-4.655201 -1.85026,-5.272572 -6.93601,-2.314317 -5.8291,3.390643 -31.02563,20.758374 -46.56399,32.096124 -13.54793,9.88541 -14.74303,12.01263 -8.59984,15.30726 4.12391,2.21168 3.00262,2.7583 21.26918,-10.36856 z m -619.07363,9.56683 c 1.59736,-0.94358 2.89421,-2.40608 2.88188,-3.25 -0.0392,-2.68797 -60.79834,-45.953989 -64.60627,-46.00556 -1.44057,-0.01951 -2.53379,0.949185 -3.38189,2.996692 -1.09324,2.639305 -1.01298,3.296146 0.62868,5.145534 1.70332,1.918853 41.45958,31.972574 52.38189,39.598064 5.14892,3.59475 7.97591,3.9489 12.09571,1.51527 z M -91.155205,114.51967 c 1.733814,-1.83838 5.8121,-8.50858 9.062858,-14.822656 5.723872,-11.117711 5.867169,-11.584679 4.538947,-14.791289 -0.754336,-1.82113 -3.124607,-5.528966 -5.267268,-8.239635 -3.07823,-3.894254 -4.181518,-4.691321 -5.257547,-3.798297 -1.33188,1.105363 -12.472895,26.506585 -16.040325,36.571517 -2.49773,7.04696 -1.73853,8.42286 4.647638,8.42286 4.559169,0 5.532157,-0.39109 8.315697,-3.3425 z m 938.842425,0.3029 c 1.60236,-2.55467 -14.16188,-40.960399 -16.81283,-40.960399 -1.80335,0 -9.3667,8.836558 -10.11491,11.817635 -0.80691,3.215005 0.82204,7.60833 6.92704,18.682364 6.89438,12.50591 7.04977,12.64655 13.58342,12.29409 3.57091,-0.19263 5.78474,-0.82522 6.41728,-1.83369 z M -1.57144,89.862171 c 2.46506,-2.465062 2.55824,-4.640322 0.25,-5.836587 -2.13825,-1.108167 -17.07702,-3.99995 -44.25,-8.565726 -30.912722,-5.194151 -32.031041,-5.119444 -26.01049,1.737584 3.685488,4.197539 6.475699,4.942137 40.01049,10.677233 26.48894,4.53012 27.3972,4.590292 30,1.987496 z m 778.22378,-2.480247 c 34.15548,-5.722985 35.08316,-5.966369 38.77704,-10.173471 3.13053,-3.565471 3.60161,-4.855923 2.10936,-5.778186 -1.17473,-0.726023 -55.5757,8.205782 -70.3215,11.545712 -5.13853,1.163878 -6.67791,3.356134 -4.8089,6.848419 1.52458,2.848694 3.51142,2.706981 34.244,-2.442474 z"
         id="path3044"
         connector-curvature="0"
         inkscape:connector-curvature="0" />
      <path
         style="fill:#f6f6f6"
         d="m 335.42856,975.80042 c -25.62191,-1.26256 -37.96156,-3.06035 -64,-9.3243 -31.92609,-7.68031 -61.64065,-19.63268 -71.57586,-28.79064 -4.93957,-4.55314 -10.30111,-14.48716 -11.12197,-20.60714 -0.44188,-3.29447 -0.18729,-4.20729 1.41222,-5.06331 1.0732,-0.57437 19.014,-3.12157 39.86844,-5.66046 55.73919,-6.78587 105.63548,-13.30308 110.58103,-14.44356 7.62944,-1.75941 8.65221,-1.4746 9.70008,2.70116 0.51756,2.0625 1.23348,18.35729 1.59093,36.21066 0.41316,20.63619 1.03969,32.93032 1.71996,33.75 1.51074,1.82033 35.33988,1.85678 36.51615,0.0393 0.44496,-0.6875 1.03402,-16.87214 1.30902,-35.96588 0.43511,-30.21015 0.70995,-34.92561 2.1176,-36.33188 1.48949,-1.48802 2.58433,-1.45181 13.82486,0.45731 6.71399,1.14032 37.71107,5.24122 68.8824,9.11311 64.01,7.95089 74.94968,9.54533 76.96446,11.21745 3.20686,2.66146 -2.13519,17.04866 -8.82994,23.78076 -6.26881,6.30378 -29.59741,17.11298 -51.46883,23.84783 -10.72751,3.30332 -39.85203,10.22914 -50.49055,12.00668 -17.07413,2.85283 -76.65305,4.55827 -107,3.06287 z m 5.8,-10.13825 c 0.87796,-0.87796 1.19634,-8.86198 1.18635,-29.75 -0.008,-15.7025 -0.285,-29.5625 -0.61664,-30.8 -0.76173,-2.8424 -2.09813,-2.85682 -26.36971,-0.28451 -10.175,1.07836 -23.675,2.42577 -30,2.99425 -12.63117,1.13528 -44.09152,4.91763 -67.5,8.11525 -8.67885,1.18554 -15.5814,2.61933 -16.37965,3.40238 -1.89796,1.86179 -0.76667,5.71692 2.90469,9.89837 10.04588,11.44162 63.55611,29.71364 104.47496,35.67483 14.43614,2.1031 30.57194,2.47749 32.3,0.74943 z M 219.88311,931.40762 c -2.87245,-2.87244 -3.32769,-8.52946 -0.88312,-10.97402 0.88536,-0.88536 3.25541,-1.57143 5.42857,-1.57143 4.79407,0 7,2.08519 7,6.61688 0,4.00221 -3.65811,8.38312 -7,8.38312 -1.15,0 -3.19545,-1.10455 -4.54545,-2.45455 z m 7.71671,-2.20044 c 2.26919,-2.05358 2.3248,-4.13939 0.17375,-6.51627 -2.05358,-2.26919 -4.13939,-2.3248 -6.51627,-0.17375 -2.26919,2.05358 -2.3248,4.13939 -0.17375,6.51627 2.05358,2.26919 4.13939,2.3248 6.51627,0.17375 z m 210.32874,35.22203 c 29.66031,-3.97716 71.55718,-17.03841 92.84893,-28.94543 9.20347,-5.14688 14.54928,-14.037 9.90107,-16.46557 -3.97627,-2.0775 -21.5693,-5.07521 -33.25,-5.66553 -13.73941,-0.69437 -27.30796,-2.06934 -63.5,-6.43476 -34.74928,-4.19139 -39.857,-4.53545 -41.31163,-2.78273 -0.83794,1.00966 -1.39825,10.23668 -1.85461,30.54151 -0.54348,24.18033 -0.41737,29.3798 0.74656,30.78225 1.22784,1.47946 2.88104,1.61092 13.41009,1.06637 6.60527,-0.34161 16.95959,-1.28486 23.00959,-2.09611 z m 78.72251,-33.12374 c -1.61954,-1.13437 -2.22251,-2.56616 -2.22251,-5.2775 0,-5.20862 2.31833,-8.1658 6.40172,-8.1658 6.42858,0 9.62945,7.51629 5.22482,12.26896 -2.84743,3.07243 -6.11209,3.48011 -9.40403,1.17434 z m 7.81746,-2.27458 c 4.96907,-4.02371 -1.11566,-11.31482 -6.49901,-7.78752 -3.05402,2.00107 -3.25984,4.89992 -0.54096,7.6188 2.47967,2.47967 4.13701,2.51939 7.03997,0.16872 z M 170.46654,897.63063 C 166.65161,896.23287 159.54831,888.32986 33.72339,745.4926 l -72.11867,-81.86958 -0.574514,-10.13042 c -0.514108,-9.06527 -3.54906,-90.07773 -5.25335,-140.22849 -0.384054,-11.30125 -0.273781,-19.32996 0.27011,-19.6661 0.71223,-0.44018 320.189864,241.57398 338.073404,256.10103 7.72531,6.27537 51.92937,56.6934 55.2566,63.02427 1.43224,2.72518 3.38345,21.28672 5.14482,48.94183 1.08086,16.97062 1.04724,19.48513 -0.27829,20.81066 -2.10145,2.10145 -6.54346,2.59757 -84.31494,9.41689 -76.13611,6.67592 -94.07712,7.71093 -99.46202,5.73794 z m 27.03454,-6.25496 c 8.48512,-0.81757 43.99011,-3.98413 78.89999,-7.03679 34.90988,-3.05267 64.60988,-5.82079 66,-6.15139 5.174,-1.23049 5.34505,-1.79345 4.65154,-15.30829 -1.84427,-35.93987 -2.73855,-44.35742 -5.15446,-48.51703 -2.26929,-3.90717 -26.21685,-31.80012 -43.13475,-50.24126 -4.66286,-5.0827 -13.73323,-13.44844 -20.15638,-18.59053 C 256.15455,727.55591 19.78505,546.07136 -16.54516,518.91247 c -20.467721,-15.30077 -19.465266,-15.75606 -18.604753,8.4497 3.84299,108.10133 4.983014,128.77143 7.344643,133.16785 2.68872,5.00533 177.47587,204.19135 195.68001,222.99534 6.82571,7.05063 9.68691,9.35027 11.62634,9.34449 1.41489,-0.004 9.51489,-0.6766 18,-1.49418 z m -24.29657,-14.7635 C 160.19885,862.46622 99.33029,794.03197 48.11432,735.97383 l -42.68576,-48.38834 0,-14.27898 c 0,-27.93259 3.36734,-113.63209 4.59009,-116.81851 1.49439,-3.89433 -1.573,-6.08377 100.90991,72.02728 57.51996,43.84091 111.38051,85.11901 154.5,118.40702 l 25.5,19.68586 21.5,25.23351 c 11.825,13.87844 21.83616,25.81823 22.24702,26.53288 0.90167,1.56839 2.73157,30.36254 2.74404,43.1786 0.005,5.50781 -0.42353,9.45827 -1.07025,9.85796 -1.09571,0.67719 -24.24045,3.15726 -73.92081,7.92096 -15.125,1.45029 -38.69121,3.73787 -52.36937,5.0835 -13.67815,1.34563 -25.44571,2.4466 -26.15014,2.4466 -0.70443,0 -5.52147,-4.6125 -10.70454,-10.25 z m 62.22405,1.74066 c 91.66368,-8.52166 92.41573,-8.60179 94.75,-10.09626 2.11513,-1.35416 2.24949,-2.11349 2.24145,-12.66745 -0.0107,-13.98995 -1.66507,-33.24859 -3.08398,-35.89984 -1.29464,-2.41907 -12.82582,-16.20027 -30.23845,-36.13875 -14.81009,-16.95842 -11.66935,-14.3507 -84.66902,-70.2995 C 66.66304,599.99979 18.74383,563.86217 16.33595,563.86217 c -0.97494,0 -2.01657,0.7875 -2.31473,1.75 -0.93339,3.01307 -2.59722,46.19912 -3.24591,84.25 l -0.62224,36.5 15.34453,17.5 c 61.23699,69.83908 141.17988,159.89053 152.02867,171.2523 4.07126,4.26376 7.85229,7.75116 8.40229,7.74976 0.55,-10e-4 22.825,-2.03152 49.5,-4.5114 z m -49.49603,-1.48424 c -0.33921,-0.54885 0.42113,-1.42182 1.68964,-1.93993 2.14497,-0.87608 54.66766,-6.49409 103.30639,-11.05 11.55,-1.08188 23.33548,-2.20392 26.18995,-2.49344 3.16604,-0.32113 5.44739,-0.10984 5.85013,0.5418 0.36311,0.58752 0.45244,1.27596 0.19852,1.52988 -0.25391,0.25392 -29.43647,3.35403 -64.85013,6.88914 -35.41366,3.5351 -66.04881,6.67339 -68.07811,6.97396 -2.02931,0.30058 -3.96718,0.0974 -4.30639,-0.45141 z M -23.17144,637.46217 c -3.84725,-3.84725 -4.29045,-6.92125 -1.76516,-12.24292 1.67262,-3.52477 5.76293,-6.35708 9.18064,-6.35708 4.35869,0 10.18452,7.17914 10.18452,12.55034 0,4.15627 -5.88175,9.44966 -10.5,9.44966 -2.87451,0 -4.45856,-0.75856 -7.1,-3.4 z m 11.54792,-4.80417 c 1.39434,-2.49537 1.34999,-2.92005 -0.57443,-5.5 -1.147,-1.53771 -2.79759,-2.936 -3.66799,-3.10731 -2.23683,-0.44027 -5.7055,3.35338 -5.7055,6.24005 0,5.73427 7.11983,7.42854 9.94792,2.36726 z m -10.9513,-37.64537 c -5.24853,-5.24853 -4.88766,-13.73121 0.7736,-18.18435 7.89871,-6.21313 18.61094,3.28889 15.23608,13.51479 -2.49345,7.55525 -10.72352,9.95572 -16.00968,4.66956 z m 10.10755,-4.25463 c 3.54415,-3.54415 1.06798,-10.89583 -3.66991,-10.89583 -4.81219,0 -7.10151,7.33275 -3.43426,11 2.55682,2.55682 4.47125,2.52875 7.10417,-0.10417 z m -9.86886,-40.31899 c -3.37016,-3.08852 -3.73531,-3.91758 -3.73531,-8.48077 0,-4.36277 0.44227,-5.49988 3.21923,-8.27684 4.4604,-4.4604 9.4042,-4.48389 13.35386,-0.0634 1.55083,1.73567 3.11069,4.70693 3.46635,6.60278 1.21846,6.4949 -4.28462,13.64139 -10.50447,13.64139 -1.13539,0 -3.74523,-1.54042 -5.79966,-3.42316 z m 8.7154,-2.55046 c 3.81653,-2.04255 3.30288,-9.74993 -0.79597,-11.94357 -1.51233,-0.80937 -2.51671,-0.58592 -4.54787,1.01178 -3.19576,2.51379 -3.47302,7.03926 -0.60687,9.90541 2.24701,2.24701 3.32312,2.43262 5.95071,1.02638 z m 553.54929,349.88539 c -5.5,-0.51024 -38.35,-3.40629 -73,-6.43567 -66.84783,-5.84437 -76.0654,-6.87052 -78.28845,-8.71549 -1.52269,-1.26373 -1.46376,-3.0183 1.36902,-40.76061 1.99454,-26.57417 2.39831,-28.25609 8.65456,-36.05105 9.23401,-11.50509 32.04357,-37.23138 40.7627,-45.97515 6.12054,-6.13785 55.54686,-44.48474 176.44703,-136.89458 92.36967,-70.60261 168.8244,-128.59838 169.89938,-128.87949 1.90773,-0.49889 1.9412,0.0133 1.39794,21.39457 -1.2666,49.84992 -4.89316,144.08754 -5.6371,146.48228 -0.44024,1.41711 -27.51926,32.91711 -60.17559,70 -32.65634,37.08288 -78.20048,88.79842 -101.2092,114.92342 -23.00871,26.125 -42.93353,48.37544 -44.27738,49.44542 -2.06312,1.64267 -4.27185,1.98032 -14.19313,2.16974 -6.46238,0.12338 -16.24978,-0.19314 -21.74978,-0.70339 z m 32.57384,-10.90635 c 14.6216,-14.94288 174.27788,-195.95613 190.51988,-216.00542 9.95715,-12.29121 9.75404,-11.79226 10.22957,-25.12977 0.4236,-11.88088 -0.33104,-14.52705 -2.81775,-9.88058 -1.38454,2.58703 -6.1346,5.01035 -9.82102,5.01035 -6.62253,0 -11.51716,-7.87477 -8.85495,-14.24635 1.63014,-3.90146 6.02947,-7.75365 8.85495,-7.75365 3.07011,0 7.47989,2.71997 9.88433,6.09669 1.7919,2.51649 2.3893,2.83602 3.06037,1.63689 1.50044,-2.68114 5.68247,-112.36341 4.46866,-117.19963 -0.45212,-1.80139 -1.16304,-2.53106 -2.11144,-2.16712 -0.7864,0.30177 -9.65506,6.73084 -19.70813,14.28682 -45.53307,34.22308 -292.00405,223.62431 -300.44321,230.87632 -5.63768,4.84462 -50.0879,54.71598 -54.03204,60.62177 -1.93645,2.89957 -2.62063,5.68026 -3.3216,13.5 -1.64796,18.38377 -3.06399,46.96962 -2.41098,48.67133 0.35757,0.93181 1.61299,1.92002 2.78982,2.19602 8.22267,1.92849 146.16803,15.08616 160.99377,15.35611 l 6.85407,0.1248 5.8657,-5.99458 z m -21.57384,-1.64101 c -2.2,-0.22029 -17.725,-1.53242 -34.5,-2.91584 -30.83857,-2.54324 -98.55362,-9.80456 -105,-11.25952 l -3.5,-0.78996 0.29078,-17.44954 c 0.15994,-9.59725 0.67343,-20.94548 1.1411,-25.21829 l 0.85031,-7.76874 9.69148,-11.9808 c 5.33032,-6.58943 15.84183,-19.3593 23.35891,-28.37748 l 13.66742,-16.3967 67,-49.89275 C 694.13314,586.43106 734.72003,556.87448 738.57211,556.86718 l 2.64354,-0.005 0.71397,16.25 c 0.39269,8.9375 0.55309,37.86998 0.35646,64.29441 -0.31713,42.61698 -0.54401,48.32181 -2.00835,50.5 -0.90795,1.35057 -12.33425,14.60559 -25.39178,29.45559 -65.99883,75.05883 -140.421,159.47215 -144.07071,163.41214 -3.89638,4.20628 -4.42378,4.45134 -10,4.64663 -3.23767,0.11339 -7.68668,0.0259 -9.88668,-0.19436 z m 15.62801,-6.09902 c 2.27357,-2.05404 10.25561,-10.71654 17.73787,-19.25 7.48225,-8.53347 21.95795,-24.96539 32.16822,-36.51539 59.25084,-67.02536 119.27096,-136.15719 120.16134,-138.40312 1.42321,-3.58997 0.42889,-118.87255 -1.03793,-120.33937 -1.55427,-1.55427 -1.91545,-1.29805 -89.15751,63.24637 -157.17637,116.28403 -186.11154,138.19682 -192.77931,145.99297 -10.26586,12.00314 -36.85883,45.29658 -38.0992,47.69883 -1.37253,2.6582 -3.0839,22.19141 -3.10566,35.44733 -0.0136,8.26609 0.23405,9.74048 1.73417,10.3256 2.21651,0.86456 23.1095,3.24167 79.25,9.01671 24.475,2.51768 47.65,4.95538 51.5,5.4171 14.81141,1.77631 17.04432,1.50405 21.62801,-2.63703 z m -26.12801,-3.32273 c -9.625,-1.01414 -40.38658,-4.11989 -68.35908,-6.90167 -27.97249,-2.78178 -51.30803,-5.33525 -51.85676,-5.67439 -1.88084,-1.16242 1.61681,-2.27214 5.69343,-1.80639 2.21233,0.25275 17.07241,1.62567 33.02241,3.05092 41.0841,3.67118 99.97905,9.94887 101.36345,10.80448 1.3811,0.85356 0.53993,2.63112 -1.17247,2.47766 -0.65504,-0.0587 -9.06598,-0.93648 -18.69098,-1.95061 z M 754.5435,594.82326 c -3.90318,-3.90318 -4.84017,-8.62861 -2.59548,-13.08961 4.44087,-8.82561 13.63974,-9.26567 17.98625,-0.86044 3.91565,7.57203 -1.15689,16.98896 -9.15129,16.98896 -2.23197,0 -4.12026,-0.91968 -6.23948,-3.03891 z m 9.88506,-3.96109 c 3.65593,-3.65593 1.54952,-11 -3.15499,-11 -2.63711,0 -5.84501,3.56738 -5.84501,6.5 0,2.76417 3.16108,6.5 5.5,6.5 0.825,0 2.4,-0.9 3.5,-2 z m -8.90521,-39.5737 c -1.68227,-1.41553 -3.57485,-4.29657 -4.20575,-6.40232 -0.97582,-3.25698 -0.86653,-4.39896 0.73194,-7.64847 2.27899,-4.63294 7.15142,-7.72172 10.75427,-6.81746 9.21773,2.3135 11.38529,16.56821 3.27166,21.51561 -4.23835,2.58439 -6.9059,2.42074 -10.55212,-0.64736 z m 8.90521,-4.4263 c 1.11111,-1.11111 2,-3.33333 2,-5 0,-2.92551 -2.93681,-7 -5.04545,-7 -2.01398,0 -5.95455,4.93323 -5.95455,7.45455 0,2.80215 3.14541,6.54545 5.5,6.54545 0.825,0 2.4,-0.9 3.5,-2 z m 0.42857,87.42857 c 0.86429,-0.86428 1.57143,-2.66428 1.57143,-4 0,-2.45446 -3.11907,-6.42857 -5.04545,-6.42857 -1.68273,0 -5.95455,4.75339 -5.95455,6.6258 0,4.47581 6.23914,6.99221 9.42857,3.80277 z M 360.695,786.88385 c -3.56562,-1.50869 -18.85177,-16.67263 -27.29462,-27.07641 -7.90679,-9.7432 -15.63954,-15.7815 -31.76756,-24.80645 -5.32542,-2.98001 -6.14726,-3.8636 -7.24702,-7.79154 -1.51055,-5.39514 -0.24811,-8.98519 3.48952,-9.92327 3.59878,-0.90324 10.67577,2.22926 36.05324,15.9583 24.3936,13.19677 27.9987,14.61769 37.08754,14.61769 6.00795,0 7.28261,-0.50433 30.53313,-12.0806 22.76741,-11.33574 38.15416,-17.9194 41.8796,-17.9194 5.65633,0 6.85606,6.71382 2.35927,13.20269 -2.65549,3.83186 -6.70587,6.77965 -23.52366,17.12006 -6.04213,3.71499 -10.03199,7.39189 -18.85259,17.37379 -6.15365,6.96384 -13.68594,14.71846 -16.73842,17.23249 l -5.54995,4.57097 -9.09746,0.23337 c -5.0036,0.12836 -10.10256,-0.19191 -11.33102,-0.71169 z m -16.76644,-61.08463 c -14.85,-7.16758 -27.54348,-13.57312 -28.20774,-14.23451 -1.20606,-1.20086 -2.67656,-26.21006 -14.91258,-253.62156 -3.07501,-57.15033 -4.35007,-87.62073 -3.76475,-89.9672 0.55888,-2.2405 1.87213,-4.10016 3.56329,-5.04588 3.66553,-2.04982 8.39766,-0.97085 39.32178,8.96576 13.75,4.41818 27.08545,8.29956 29.63433,8.62529 3.98432,0.50917 8.40247,-0.6074 31.5,-7.96077 38.46084,-12.24445 38.19771,-12.19134 42.73081,-8.6256 2.47306,1.94531 2.63486,2.58867 2.63486,10.47673 0,4.62228 -1.78825,41.15211 -3.97388,81.17742 -2.18564,40.0253 -6.02174,110.79827 -8.52468,157.27327 -2.50294,46.475 -4.83231,87.56972 -5.17638,91.32159 l -0.62557,6.8216 -26.59974,13.29349 c -14.62986,7.31142 -27.49975,13.57223 -28.59975,13.91292 -1.37621,0.42623 -10.42113,-3.44516 -29,-12.41255 z m 50.45603,-5.53251 c 11.48108,-5.8275 21.8661,-11.65076 23.07781,-12.94056 1.72767,-1.83902 2.39664,-4.24624 3.09988,-11.15454 1.06829,-10.49449 16.86628,-304.48698 16.86628,-313.87291 0,-4.91048 -0.37392,-6.64278 -1.52956,-7.08625 -0.84125,-0.32282 -14.22875,3.30563 -29.75,8.06321 -15.52124,4.75758 -29.79745,8.90178 -31.72492,9.20933 -4.2564,0.67916 -10.05405,-0.76684 -38.52187,-9.60779 -12.1145,-3.76227 -23.68181,-7.15106 -25.70513,-7.53063 -3.38836,-0.63566 -3.73113,-0.48157 -4.34191,1.95199 -0.36472,1.45317 -0.15788,11.96197 0.45965,23.35287 0.61753,11.39091 3.5914,66.38574 6.60859,122.21074 8.23641,152.39245 9.50164,174.36775 10.3136,179.13305 0.64909,3.80945 1.37904,4.78289 5.71782,7.62507 7.54002,4.9392 40.15605,21.24188 42.49767,21.24188 1.13156,0 11.451,-4.76796 22.93209,-10.59546 z M 116.42856,605.7894 C 23.75356,535.38412 -52.446253,476.96883 -52.904358,475.97763 c -0.608852,-1.31736 0.492285,-4.11334 4.093243,-10.39346 2.709388,-4.72522 6.909201,-13.00271 9.332918,-18.39443 2.423716,-5.39173 11.213067,-23.53364 19.531897,-40.31535 C 0.75129,365.12076 5.70369,354.0945 5.00675,351.31769 4.65727,349.92526 -4.19047,341.94233 -17.8177,330.7242 -53.01801,301.7468 -48.265823,307.94488 -83.270087,245.35731 -99.879343,215.65998 -114.83753,188.66217 -116.5105,185.36217 l -3.04176,-6 0.96749,-25.5 c 1.48682,-39.18819 0.81772,-35.13509 9.49458,-57.513351 12.809599,-33.036905 15.184816,-36.135316 27.456062,-35.815736 3.609479,0.094 21.412688,2.649212 39.562688,5.678244 18.15,3.029033 37.1284,5.96308 42.17422,6.520104 5.28539,0.583471 10.79592,1.841331 13,2.967443 4.10275,2.096184 57.72469,39.603206 70.57578,49.365756 l 7.75,5.88742 0,7.89604 c 0,4.34283 0.44797,8.1729 0.99548,8.51129 1.7282,1.06808 25.32703,-3.41913 60.50452,-11.50466 18.7,-4.29819 75.51567,-17.11764 126.25704,-28.48767 l 92.25704,-20.672771 67.74296,15.171451 c 37.25863,8.34429 92.49296,20.78023 122.74296,27.63541 65.23649,14.78373 86.51221,19.08955 88.43938,17.8985 0.58334,-0.36053 1.06062,-3.29965 1.06062,-6.53139 0,-6.55756 1.23108,-10.67851 3.78931,-12.68447 3.8799,-3.0423 59.28292,-42.370807 66.21069,-47.000456 10.73241,-7.172189 11.12013,-7.325921 21.28622,-8.440057 5.06758,-0.555373 23.83878,-3.424734 41.71378,-6.376357 43.63081,-7.204573 43.69578,-7.210752 48.74116,-4.636788 6.65949,3.397419 8.31511,6.472973 20.14679,37.425765 l 6.95934,18.206283 1.16954,31.37079 1.16955,31.37078 -2.75797,5.12922 c -8.61808,16.0277 -63.09841,112.73986 -65.30201,115.92253 -1.44452,2.08632 -11.89452,11.40701 -23.22221,20.71264 -11.3277,9.30563 -23.69792,19.80104 -27.48937,23.32312 l -6.89356,6.4038 2.35273,5.88356 c 1.29401,3.23596 10.14415,21.63356 19.66698,40.88356 9.52283,19.25 19.9875,40.85 23.25482,48 3.26732,7.15 7.7999,16.14286 10.0724,19.98413 2.2725,3.84127 4.13181,7.50586 4.13181,8.14353 0,1.56276 -337.54998,259.37234 -339.5961,259.37234 -1.43711,0 -1.54211,-1.54462 -0.96871,-14.25 0.35372,-7.8375 1.96859,-64.65 3.58861,-126.25 1.62002,-61.6 3.89643,-145.19822 5.05869,-185.77382 1.16227,-40.57559 1.8583,-74.43809 1.54674,-75.25 -0.31155,-0.8119 -1.49194,-1.47618 -2.62309,-1.47618 -1.13115,0 -22.42665,7.6731 -47.32333,17.05133 l -45.26671,17.05132 -37.45805,-13.92269 c -20.60193,-7.65748 -39.78592,-14.68024 -42.63109,-15.60613 -2.84517,-0.92589 -5.71277,-2.33378 -6.37244,-3.12863 -1.26381,-1.5228 -6.49564,-1.9967 -7.31989,-0.66304 -0.26587,0.43018 0.36903,32.04268 1.41087,70.25 1.04185,38.20731 3.24865,121.21784 4.904,184.46784 1.65535,63.25 3.30406,122.3125 3.6638,131.25 0.54313,13.49353 0.41936,16.24464 -0.72961,16.21841 -0.76103,-0.0174 -77.20869,-57.6359 -169.88369,-128.04118 z m 161.57227,108.53924 c 1.19428,-6.36605 -1.61109,-103.53105 -3.11554,-107.90802 -1.25303,-3.6455 -1.20485,-4.04657 0.64147,-5.33978 1.66601,-1.16693 1.94708,-2.33229 1.69902,-7.04449 l -0.29722,-5.64627 -33,-21.71244 c -18.15,-11.94185 -33.93406,-21.73563 -35.07569,-21.76396 -1.14162,-0.0283 -3.15047,1.09255 -4.4641,2.49084 -2.0185,2.1486 -2.20037,2.84344 -1.17431,4.48643 1.75674,2.81298 1.61425,2.97122 -2.67538,2.97122 -3.59234,0 -4.71763,0.8093 -14.72978,10.59355 -9.82251,9.59894 -11.12386,10.54688 -13.86052,10.09642 -2.93623,-0.48332 -36.54964,-15.74077 -80.77069,-36.6626 l -21.75046,-10.29056 -2.04705,-6.6184 c -1.12588,-3.64013 -5.22786,-18.17864 -9.11551,-32.30782 l -7.06846,-25.68941 4.86597,-5.5541 c 2.69142,-3.07201 5.44957,-5.33799 6.17188,-5.07052 1.98815,0.73621 8.1941,-2.19633 8.1941,-3.87201 0,-0.81262 -10.2375,-9.02921 -22.75,-18.25908 -49.91531,-36.82012 -45.40903,-33.1998 -44.18084,-35.49469 0.74822,-1.39808 1.80956,-1.9269 3.26936,-1.629 1.18881,0.2426 14.76148,9.13326 30.16148,19.75701 44.81112,30.91314 44.13168,30.49006 46.92255,29.21845 1.32219,-0.60243 2.69834,-2.02276 3.0581,-3.15628 0.45134,-1.42205 1.50531,-2.06096 3.39983,-2.06096 3.25761,0 17.43604,-7.06243 27.17071,-13.53403 4.95227,-3.29226 7.51398,-4.42137 8.9774,-3.9569 4.96218,1.57494 96.50262,76.96275 107.84332,88.81399 l 3.3719,3.5237 -7.16222,7.56704 c -6.12471,6.47088 -7.01152,7.84861 -6.1219,9.51087 1.8022,3.36746 1.27525,4.21003 -2.22261,3.55383 -2.67607,-0.50204 -3.7042,-0.1424 -5.71653,1.99963 -1.9272,2.05141 -2.2252,2.97388 -1.38897,4.29957 1.72587,2.73608 56.48057,40.34683 58.25049,40.012 2.25338,-0.42629 2.60781,-5.94169 0.62788,-9.77046 -1.35966,-2.62928 -1.41388,-3.64292 -0.35198,-6.57957 1.01399,-2.80413 0.91652,-19.08705 -0.50707,-84.70556 -2.12928,-98.14638 -3.47066,-146.49647 -4.14488,-149.40233 -0.59659,-2.57128 -2.90889,-3.50836 -93.23168,-37.78266 -77.75335,-29.50464 -79.12187,-30.07301 -80.4936,-33.43039 -0.6664,-1.63102 -1.25059,-17.41609 -1.54888,-41.8514 -0.26341,-21.57796 -0.82713,-39.01746 -1.25271,-38.75444 -0.8954,0.55339 -1.52537,13.22034 -3.10767,62.48711 -0.62708,19.525 -1.48239,36.41736 -1.90068,37.53858 -0.75713,2.02946 -23.19772,27.54668 -50.91667,57.8974 -8.00477,8.76478 -16.48147,18.0724 -18.8371,20.6836 -5.69409,6.31183 -10.80561,14.95335 -12.70043,21.4713 -0.84858,2.91903 -1.99976,5.58969 -2.55817,5.93481 -0.55841,0.34512 -3.06752,4.71371 -5.57579,9.708 -3.78536,7.53709 -4.38509,9.46552 -3.52844,11.34566 0.87138,1.91248 0.64994,2.51553 -1.42227,3.87329 -1.61716,1.05961 -6.59053,9.86947 -14.58036,25.82776 -14.150821,28.26377 -18.992881,39.18777 -18.239824,41.15021 0.981933,2.55888 26.032784,22.08582 166.388254,129.69836 144.60429,110.87018 149.32336,114.40725 151.14061,113.28413 0.43006,-0.26579 1.07431,-2.04178 1.43166,-3.94663 z M 32.0655,454.35625 c -4.03346,-4.03346 -1.82749,-10.65081 3.77243,-11.31634 3.69252,-0.43884 5.59063,1.40973 5.59063,5.4447 0,5.84847 -5.76867,9.46604 -9.36306,5.87164 z M 246.89874,442.35571 C 232.85525,437.00498 55.50427,353.7627 48.82836,349.38847 c -5.07367,-3.32439 -5.29485,-9.6555 -0.52099,-14.91308 1.44166,-1.58772 6.19872,-5.56308 10.57126,-8.83413 6.02069,-4.50402 8.5689,-5.84423 10.5,-5.5224 3.05329,0.50884 184.02554,81.48465 185.74627,83.11193 2.66093,2.51643 4.48509,37.47233 2.05366,39.3537 -2.61051,2.01993 -4.48752,1.97815 -10.27982,-0.22878 z m 1.24634,-21.97639 c -0.79703,-13.07814 -1.09836,-13.56781 -11.39639,-18.51934 -17.34368,-8.33925 -127.9289,-57.01539 -153.52947,-67.57886 -5.89013,-2.43042 -11.58305,-4.41895 -12.65091,-4.41895 -2.44119,0 -14.13975,8.701 -14.13975,10.51667 0,2.28661 4.94704,5.07951 31.1704,17.59757 36.8761,17.60329 131.27736,61.79722 145.78546,68.24943 15.47063,6.88029 15.53474,6.8549 14.76066,-5.84652 z M 0.08355,431.03343 c -2.19667,-2.42729 -2.10488,-7.45414 0.17375,-9.51627 2.04499,-1.85069 7.69628,-2.23254 8.71224,-0.58868 1.29016,2.08752 0.63255,8.08447 -1.09597,9.99445 -2.20853,2.4404 -5.63747,2.48904 -7.79002,0.1105 z m 62.91794,-17.74119 c -4.13671,-4.1367 -2.7006,-11.43007 2.25064,-11.43007 5.87626,0 8.06522,6.20212 3.72188,10.54545 -2.87071,2.87072 -3.84249,3.01465 -5.97252,0.88462 z M 32.25671,393.8258 c -2.55447,-1.49056 -3.30228,-6.59107 -1.39348,-9.50427 2.11348,-3.22557 6.82842,-3.34954 9.00863,-0.23685 2.1938,3.13209 1.93996,5.48514 -0.89785,8.32294 -2.64202,2.64203 -4.09443,2.94867 -6.7173,1.41818 z m 130.24784,-40.99799 c -46.98321,-20.85251 -85.88373,-38.37338 -86.4456,-38.93525 -1.27367,-1.27367 2.17431,-6.26942 14.5669,-21.10582 5.30802,-6.35475 10.16066,-11.22729 11.52162,-11.56887 3.4728,-0.87162 10.22619,1.63171 98.78109,36.61587 25.3,9.99492 46.77192,18.92765 47.71538,19.8505 2.03459,1.99018 3.32687,12.36644 4.34918,34.92155 0.72008,15.88714 0.25808,18.33304 -3.437,18.19603 -0.89516,-0.0332 -40.06837,-17.12149 -87.05157,-37.97401 z m 77.7224,16.25833 c 0.43225,-9.09143 -1.30734,-20.1955 -3.48901,-22.27086 -4.01533,-3.81967 -123.61022,-51.95311 -129.08543,-51.95311 -1.93183,0 -10.28091,8.09156 -13.62631,13.20602 -0.97352,1.48832 -1.44335,3.23461 -1.04407,3.88065 0.90335,1.46166 13.31419,7.2961 52.94643,24.89054 69.67927,30.93361 89.09089,39.11245 92,38.76302 1.72496,-0.20719 2.04104,-1.10331 2.29839,-6.51626 z M 495.32752,698.3836 C 587.37397,628.90387 777.71285,482.38181 782.38691,477.40651 l 2.40374,-2.55867 -2.3142,-5.74283 C 776.816,455.05824 754.57951,411.08307 751.86369,408.56483 l -2.89818,-2.68735 1.82866,-3.39563 1.82867,-3.39563 -4.84714,-9.36202 c -3.44555,-6.65492 -5.43826,-9.44663 -6.8914,-9.65462 -1.44989,-0.20752 -2.41747,-1.55656 -3.32786,-4.63987 -2.04346,-6.92079 -7.49564,-14.23188 -25.12788,-33.69519 -9.075,-10.01742 -25.8375,-28.59459 -37.25,-41.28261 l -20.75,-23.06913 -0.0223,-7.5103 c -0.0458,-15.42994 -2.92258,-100.28849 -3.41666,-100.78258 -1.2584,-1.25839 -1.49696,4.77448 -1.77046,44.77227 -0.21522,31.47426 -0.61153,43.06038 -1.52764,44.66003 -1.46668,2.56103 -14.94176,8.00101 -103.26297,41.68797 -68.73121,26.21506 -68.22437,26.0125 -69.78186,27.88916 -1.05786,1.27465 -3.04347,68.109 -4.71674,158.76284 -0.30964,16.775 -1.05262,40.60003 -1.65109,52.94451 l -1.08812,22.44451 2.20261,1.78356 2.20261,1.78357 -2.0837,2.92629 c -2.53508,3.56023 -2.97995,12.11756 -0.62994,12.11756 1.88548,0 56.58172,-38.09261 57.98137,-40.3805 0.85802,-1.40253 0.51983,-2.21458 -1.74087,-4.18009 -1.54317,-1.34168 -3.89442,-2.43941 -5.225,-2.43941 -2.16065,0 -2.35439,-0.32425 -1.81254,-3.03352 0.54366,-2.71829 -0.0824,-3.74732 -6.025,-9.90277 -3.64743,-3.77809 -6.6317,-7.26587 -6.6317,-7.75064 0,-1.3032 8.77074,-9.5363 24,-22.52883 23.52352,-20.06861 81.77252,-67.34679 85.34451,-69.27044 l 3.43327,-1.84893 7.86111,5.03634 c 10.42768,6.68066 23.7301,13.29879 26.7305,13.29879 1.69333,0 2.58823,0.69502 2.99823,2.32856 0.64193,2.55767 5.09647,5.11078 6.95732,3.98758 0.64628,-0.3901 16.84269,-11.64611 35.99201,-25.01335 19.14932,-13.36725 35.72426,-24.78966 36.83319,-25.38314 1.58015,-0.84567 2.43081,-0.70387 3.93305,0.65563 3.68972,3.33916 6.20584,1.10596 -37.08319,32.91331 -14.025,10.30511 -26.50688,19.65907 -27.73751,20.78657 -3.07247,2.81499 -1.31011,4.72484 4.35995,4.72484 2.40766,0 4.37756,0.38664 4.37756,0.85921 0,0.47257 1.87571,2.99012 4.16824,5.59458 l 4.16823,4.73536 -1.82938,7.15543 c -3.01791,11.80427 -14.43139,51.96411 -15.54889,54.71088 -1.14746,2.82039 -3.27918,3.97978 -33.4582,18.19714 -46.58925,21.94822 -70.7569,32.7474 -73.28594,32.7474 -0.88478,0 -6.62581,-4.95 -12.75783,-11 -7.24022,-7.14337 -11.90417,-11 -13.30268,-11 -1.67013,0 -2.15355,-0.60284 -2.15355,-2.68555 0,-2.76103 -3.43629,-7.31445 -5.51994,-7.31445 -1.50132,0 -64.56616,42.63488 -66.23006,44.77471 -1.83067,2.35432 -1.65043,13.1344 0.23169,13.85664 1.19511,0.4586 1.25704,0.98441 0.32021,2.71861 -1.8734,3.46793 -4.1855,108.60231 -2.45011,111.41022 0.42143,0.6819 1.13772,1.23982 1.59175,1.23982 0.45402,0 13.03396,-9.21536 27.95542,-20.47857 z M 703.98526,453.63966 c -3.27379,-4.67399 -1.04127,-10.77749 3.94215,-10.77749 3.09943,0 6.75608,4.59042 5.90039,7.40713 -1.68892,5.55946 -7.02854,7.3879 -9.84254,3.37036 z m -215.5567,-9.54224 c -4.26628,-1.32345 -4.87287,-6.84474 -2.94562,-26.81157 1.32572,-13.73489 2.2777,-16.79292 5.72455,-18.38906 24.40421,-11.30085 180.84241,-79.03462 182.5387,-79.03462 5.40928,0 23.20665,14.94729 24.21833,20.33999 1.17977,6.28872 -0.37089,7.887 -14.20793,14.6442 -24.66312,12.04402 -146.43753,69.09279 -172.32803,80.73209 -17.1951,7.7302 -20.99984,9.13944 -23,8.51897 z m 22.80923,-18.64426 c 26.57647,-11.95797 147.89147,-68.91659 164.13528,-77.06316 13.43399,-6.7374 13.71957,-7.57078 4.83546,-14.11089 -5.1238,-3.77193 -6.74135,-4.47466 -9.17797,-3.98734 -4.33158,0.86632 -57.30469,23.59293 -126.73525,54.37218 -37.3914,16.57597 -46.50775,21.11488 -47.71037,23.75434 -1.74842,3.83738 -2.65817,20.13434 -1.22064,21.86645 1.40771,1.69619 1.27758,1.73579 15.87349,-4.83158 z m 221.91536,5.65718 c -1.9004,-2.09991 -3.72459,-6.6487 -3.72459,-9.28759 0,-1.11676 1.26555,-2.56366 3.04899,-3.48591 2.99898,-1.55084 3.10558,-1.5201 6.5,1.87432 2.37226,2.37226 3.45101,4.37159 3.45101,6.39602 0,5.34506 -5.91475,8.21664 -9.27541,4.50316 z m -48.08973,-28.32075 c -4.81654,-3.78869 -2.48337,-10.92742 3.57144,-10.92742 5.23153,0 7.18449,7.64563 2.84958,11.15583 -2.85901,2.31509 -3.20305,2.30285 -6.42102,-0.22841 z M 490.39676,388.27853 c -0.64406,-1.69402 -0.63729,-9.01095 0.0197,-21.25 1.42279,-26.50609 1.81016,-28.49344 5.97344,-30.64635 3.26915,-1.69055 119.25874,-47.67526 132.29093,-52.44747 4.81373,-1.76272 9.9696,-3.06266 11.45749,-2.88875 2.07619,0.24268 5.23731,3.33594 13.59425,13.30246 12.54196,14.95758 14.54317,18.14931 12.53599,19.99362 -1.58423,1.45565 -171.99198,76.52013 -173.71232,76.52013 -0.64745,0 -1.61922,-1.16264 -2.15948,-2.58364 z m 27.18871,-16.77012 c 30.9783,-13.03981 103.99943,-45.22235 121.09309,-53.36926 8.37011,-3.98923 11.75,-6.10195 11.75,-7.34474 0,-0.95954 -3.09216,-5.04564 -6.87148,-9.08021 l -6.87147,-7.33559 -4.87853,1.29344 c -5.07243,1.34485 -80.53661,31.24469 -108.09258,42.82761 -8.68227,3.64952 -16.57319,7.37382 -17.53539,8.27622 -2.59335,2.43221 -5.18528,26.31822 -3.08388,28.41962 1.34352,1.34353 4.36659,0.5743 14.49024,-3.68709 z m 197.07205,12.68447 c -0.69907,-0.28127 -1.95487,-1.83379 -2.79067,-3.45005 -2.15741,-4.17196 -0.18465,-8.25777 4.19323,-8.68466 6.26751,-0.61116 8.82139,6.72938 3.73362,10.73142 -2.74607,2.16006 -3.04935,2.24292 -5.13618,1.40329 z M 385.05529,350.44281 c 14.88208,-5.10897 82.0828,-30.23539 170.87327,-63.88969 83.22065,-31.54316 83.23087,-31.54722 83.90776,-33.31118 0.80166,-2.08909 0.5901,-66.71483 -0.27043,-82.60567 -0.37954,-7.00893 -1.18598,-13.22275 -1.79512,-13.83189 -1.58071,-1.58071 -20.55569,-6.21282 -86.13954,-21.02808 C 409.97332,103.77607 378.00619,96.862171 371.70778,96.862171 c -6.53541,0 -35.13289,6.168909 -173.45847,37.417599 -69.23825,15.6414 -91.49799,20.92631 -92.54333,21.97165 -1.53928,1.53927 -2.2375,14.25149 -2.88126,52.45816 -0.51734,30.70314 -0.39946,42.27791 0.44666,43.8589 0.82081,1.53369 6.36892,4.20377 19.40333,9.33802 28.6863,11.29953 187.25931,71.15237 235.25385,88.79575 6.05,2.22406 11.73203,4.06988 12.62673,4.10183 0.8947,0.0319 7.4197,-1.93062 14.5,-4.36127 z M 363.92856,246.97884 c -3.85,-1.54797 -28.375,-12.27648 -54.5,-23.84112 -86.07926,-38.10435 -83,-36.60525 -83,-40.40748 0,-1.00208 1.21744,-2.61984 2.70543,-3.59502 2.54694,-1.66918 10.08915,-1.79242 128.75,-2.10365 69.32451,-0.18183 133.7919,-0.0216 143.26085,0.35608 15.16987,0.60507 17.28242,0.89507 17.77268,2.43973 0.96011,3.02503 -0.56999,5.04216 -5.85703,7.72131 -2.81518,1.42655 -27.39652,12.4696 -54.62521,24.5401 -27.2287,12.07051 -57.20133,25.50745 -66.60585,29.85988 -9.40452,4.35242 -17.95452,7.89801 -19,7.87908 -1.04548,-0.0189 -5.05087,-1.30094 -8.90087,-2.84891 z m 15.22397,-10.19144 c 12.19206,-4.82094 58.50923,-24.82193 83.79174,-36.18352 14.10792,-6.33988 23.08804,-10.92267 23.27166,-11.87613 0.25258,-1.31154 -1.68703,-1.65385 -12.49419,-2.20501 -16.1926,-0.82583 -201.56364,-0.64396 -210.29318,0.20631 -4.52962,0.4412 -6.5,1.0485 -6.5,2.0034 0,1.44566 25.11936,13.1307 69.5,32.33006 21.6472,9.36472 43.92211,18.7192 44.72397,18.78209 0.12318,0.01 3.72318,-1.36608 8,-3.0572 z m -259.4086,-55.94153 c -4.81607,-1.91989 -5.86244,-9.52754 -1.86082,-13.52915 2.72984,-2.72985 4.27912,-2.98865 7.93081,-1.32483 8.58578,3.91195 2.68773,18.34518 -6.06999,14.85398 z m 4.95399,-6.2337 c 0.6402,-1.83534 -0.28768,-3.75 -1.81733,-3.75 -1.75682,0 -2.76864,1.73253 -2.07203,3.54789 0.68286,1.77951 3.29184,1.91508 3.88936,0.20211 z m 490.08764,6.2491 c -4.46983,-1.78436 -6.63782,-7.73734 -4.36468,-11.98476 1.40405,-2.62348 7.06607,-4.32284 10.30284,-3.09222 4.99009,1.89723 6.24744,8.26953 2.45484,12.4413 -2.66887,2.9357 -5.45205,3.80971 -8.393,2.63568 z m 5.31113,-6.57664 c 0.33295,-0.86765 -0.13118,-2.31408 -1.03139,-3.21429 -1.51565,-1.51566 -1.75783,-1.51566 -3.27348,0 -2.04449,2.04448 -1.10608,4.79183 1.63674,4.79183 1.13452,0 2.33518,-0.70989 2.66813,-1.57754 z M 219.85313,149.55095 c -5.3563,-4.6073 -2.51953,-14.80803 4.30867,-15.49351 6.20433,-0.62286 9.87195,9.63126 5.2278,14.61617 -1.12142,1.20371 -2.43462,2.18856 -2.91821,2.18856 -0.48359,0 -1.535,0.25163 -2.33647,0.55919 -0.80147,0.30755 -2.72827,-0.53414 -4.28179,-1.87041 z m 6.07543,-6.75842 c 0,-2.8289 -2.93363,-3.84867 -3.89143,-1.3527 -0.7328,1.90965 1.13864,4.67327 2.79152,4.12231 0.60495,-0.20165 1.09991,-1.44797 1.09991,-2.76961 z m 279.82118,7.87112 c -4.79574,-2.297 -5.36049,-9.95786 -1.07274,-14.55148 2.73722,-2.93247 6.237,-2.85547 9.29701,0.20455 6.11677,6.11676 -0.67412,17.9632 -8.22427,14.34693 z m 5.17882,-7.80148 c 0,-2.85063 -3.15628,-4.05931 -4.11001,-1.57391 -0.9098,2.37089 0.3775,4.76534 2.35699,4.38412 1.10702,-0.21319 1.75302,-1.24877 1.75302,-2.81021 z m -199.2963,-12.12035 c -4.91997,-1.82001 -5.8154,-10.33627 -1.579,-15.01744 3.54133,-3.91313 10.20573,-1.03553 11.68485,5.04536 1.45175,5.96837 -4.65072,11.99006 -10.10585,9.97208 z m 4.61272,-8.20677 c 0.25298,-2.13694 -0.0979,-2.67288 -1.75,-2.67288 -1.49815,0 -2.06642,0.64167 -2.06642,2.33333 0,4.54039 3.28452,4.83262 3.81642,0.33955 z m 101.64368,8.30162 c -7.48264,-2.76801 -5.69284,-15.97953 2.27314,-16.77923 5.48614,-0.55076 9.38345,7.98115 6.28787,13.76529 -1.25105,2.3376 -5.93328,3.986 -8.56101,3.01394 z m 4.35632,-8.30162 c 0.2492,-2.10499 -0.10491,-2.67288 -1.66666,-2.67288 -2.38817,0 -3.2193,1.84024 -1.94693,4.31077 1.27951,2.48439 3.23026,1.6002 3.61359,-1.63789 z M 13.34794,340.45931 c 1.36729,-1.64748 2.64849,-17.19844 1.72128,-20.89271 -0.59186,-2.35819 -16.61099,-16.70252 -41.14066,-36.83944 -10.56134,-8.67002 -12.107148,-9.46756 -13.458013,-6.94344 -1.097085,2.04992 -1.461128,20.82261 -0.454658,23.44543 0.955793,2.49076 49.398631,42.63302 51.448631,42.63302 0.39553,0 1.24307,-0.63129 1.88342,-1.40286 z m 729.93692,-7.33857 c 26.68356,-20.81115 43.74271,-36.15641 44.6163,-40.1338 0.78657,-3.58123 -0.99157,-19.04374 -2.34568,-20.39785 -0.75458,-0.75458 -1.74793,-0.76122 -3.34979,-0.0224 -2.61784,1.2074 -32.22233,25.78574 -44.66229,37.07968 l -8.38517,7.61269 0.5591,8.55156 c 0.5934,9.07638 1.9363,14.05156 3.79278,14.05156 0.62207,0 5.02071,-3.03364 9.77475,-6.74143 z m -19.63866,3.5885 c 0.95637,-2.86909 -1.46858,-15.53651 -3.78719,-19.7835 -4.30488,-7.88526 -37.66885,-44.34101 -42.2297,-46.14306 -2.52217,-0.99654 -9.76198,0.24072 -11.48381,1.96255 -1.5127,1.5127 1.96235,6.11742 20.40756,27.04164 17.65329,20.02587 34.67854,38.0753 35.91478,38.0753 0.43673,0 0.96699,-0.51882 1.17836,-1.15293 z M 36.71649,321.61217 c 14.35061,-15.27268 32.64693,-36.0028 38.13913,-43.21244 l 3.78032,-4.96243 -2.65946,-2.28757 c -1.725,-1.48378 -3.95748,-2.29115 -6.35368,-2.29779 -3.3564,-0.009 -4.50916,0.83662 -12.60544,9.25 -13.42383,13.94959 -31.30702,34.64572 -32.96759,38.15322 -1.67351,3.53484 -3.16847,14.7385 -2.27671,17.06238 0.326,0.84954 1.02038,1.54463 1.54305,1.54463 0.52268,0 6.55285,-5.9625 13.40038,-13.25 z m -7.5257,-26.97076 c 10.41904,-10.73873 25.50003,-27.68394 27.5896,-31.00006 2.0661,-3.27889 3.39478,-111.98261 1.41516,-115.77918 -1.32877,-2.54834 -36.31192,-29.48631 -51.827,-39.90818 l -8.56,-5.74998 -26.32536,-4.313807 c -14.478948,-2.372595 -28.823775,-4.362009 -31.877393,-4.42092 -5.423841,-0.104639 -5.6161,-0.01255 -8.32685,3.988212 -5.346362,7.890645 -14.785868,26.992645 -16.26819,32.920685 -2.015041,8.05847 -4.646115,26.51804 -4.725368,33.15309 -0.0583,4.8812 0.657362,6.70254 7.703861,19.606 14.984734,27.43984 38.754384,69.2638 41.59482,73.18829 2.994109,4.13681 18.90147,18.60254 36.84449,33.5054 17.35633,14.41557 19.89573,16.15738 21.95174,15.05704 0.99412,-0.53204 5.85884,-5.143 10.81049,-10.24659 z m 708.30311,2.85209 c 21.52915,-17.26652 42.35388,-36.11513 46.54845,-42.13133 4.8232,-6.91782 32.35572,-55.6255 42.62172,-75.40192 7.84918,-15.12067 7.44416,-11.71433 4.17323,-35.09808 -2.07491,-14.83349 -4.42257,-21.79648 -11.96927,-35.5 -9.08798,-16.502216 -9.45913,-16.854858 -16.93947,-16.094791 -12.81585,1.3022 -54.89225,8.687091 -58.05969,10.190141 -3.76126,1.78483 -24.19499,16.51139 -45.42387,32.7369 l -14.17253,10.83225 0.32804,57.21289 c 0.30885,53.86387 0.43737,57.37966 2.19564,60.06203 4.81661,7.34809 37.25456,41.56058 39.40491,41.56058 0.472,0 5.55378,-3.7659 11.29284,-8.36867 z M -47.260083,278.88106 c 1.002743,-8.4666 -0.755272,-15.26847 -6.936186,-26.83655 -21.329821,-39.92047 -42.677891,-76.60458 -44.82401,-77.02471 -2.522821,-0.49386 -7.551161,4.69565 -7.551161,7.79321 0,1.41716 3.42359,8.87047 7.607972,16.56291 9.794754,18.00636 44.080845,78.14443 46.599704,81.73625 2.90152,4.13748 4.428474,3.46996 5.103681,-2.23111 z m 845.509433,-2.76889 c 2.67792,-3.76309 34.95062,-60.27024 45.00898,-78.80744 4.49363,-8.28159 8.17023,-15.80156 8.17023,-16.71104 0,-2.49981 -4.02456,-5.73152 -7.13767,-5.73152 -3.66061,0 -5.10274,2.02604 -19.57441,27.5 -18.11357,31.88467 -30.02206,54.50267 -31.32704,59.5 -1.08016,4.13639 -0.69961,13.99569 0.62278,16.13537 0.93627,1.51491 2.22568,0.94117 4.23713,-1.88537 z M 674.27703,262.01866 c 1.10872,-1.36196 1.25507,-11.16886 0.82313,-55.15649 -0.28893,-29.425 -0.8186,-54.44699 -1.17703,-55.60443 -0.35843,-1.15743 -2.89359,-3.81411 -5.63368,-5.90373 -8.59778,-6.55676 -8.3131,-8.45846 -6.98739,46.67617 1.45444,60.48787 1.94341,69.50604 3.87334,71.43597 1.83583,1.83583 7.11189,0.99674 9.10163,-1.44749 z M 78.91209,261.11217 c 1.09867,-2.75647 2.42424,-42.38876 2.73357,-81.72903 0.26827,-34.1182 0.18878,-35.99754 -1.53682,-36.33675 -2.49016,-0.48952 -9.55265,4.34988 -10.68163,7.31933 -0.50643,1.33202 -1.23432,26.20012 -1.61752,55.26245 l -0.69674,52.84058 2.79267,2.19671 c 3.39598,2.67129 8.02823,2.90104 9.00647,0.44671 z M -103.10265,167.0887 c 3.0355,-4.58696 5.907347,-15.4189 7.551835,-28.48381 1.478017,-11.74235 1.005368,-12.74272 -6.020625,-12.74272 -7.32847,0 -7.4477,0.34495 -7.8426,22.68952 -0.18843,10.66201 -0.0901,20.0436 0.21861,20.84797 0.97839,2.54964 3.51218,1.58858 6.09278,-2.31096 z m 955.53121,-17.76842 c 0,-10.63035 -0.42422,-20.4437 -0.94272,-21.80744 -1.14995,-3.0246 -3.80385,-3.97644 -8.58578,-3.07934 -4.6719,0.87645 -5.40059,2.95125 -4.36503,12.42867 1.89218,17.31722 5.58941,29.61117 9.5761,31.84223 4.00226,2.23978 4.31743,0.82475 4.31743,-19.38412 z M 75.23148,137.15485 c 1.8166,-1.36135 3.14708,-2.99662 2.95661,-3.63393 C 77.5291,131.31589 32.66095,98.713548 16.5658,88.744596 L 11.20304,85.423031 8.8158,88.198365 c -3.93768,4.577833 -3.1933,6.782182 4.36276,12.919445 9.57755,7.77917 40.72049,30.7994 48.25579,35.66971 6.95534,4.49545 8.24278,4.52972 13.79713,0.36733 z M 687.588,132.72849 c 20.02557,-14.36275 38.15593,-28.23754 43.19001,-33.052429 4.29488,-4.107877 4.81247,-5.032633 4.1946,-7.494405 -0.86367,-3.441126 -2.33883,-5.319485 -4.17763,-5.319485 -2.48097,0 -55.3179,36.582329 -62.61642,43.353279 -1.5125,1.40317 -2.75,2.94427 -2.75,3.42466 0,1.82459 7.11926,7.12503 9.65944,7.19165 0.63769,0.0167 6.26269,-3.62975 12.5,-8.10327 z M -91.172757,116.61217 c 2.600504,-2.33093 14.220507,-22.536885 15.239573,-26.499999 0.906803,-3.526527 -0.260858,-6.517323 -5.123203,-13.122351 -4.537726,-6.164065 -6.362587,-7.221212 -8.344028,-4.833721 -1.429887,1.722907 -13.389805,29.586631 -16.337765,38.063051 -2.78622,8.01136 -2.34908,8.60428 6.360976,8.62771 4.508491,0.0121 6.216953,-0.45322 8.204447,-2.23469 z m 938.667057,0.21482 c 2.79559,-1.49615 2.44885,-3.80522 -2.44634,-16.2913 -6.83715,-17.439425 -12.31324,-28.673519 -13.97698,-28.673519 -1.70275,0 -8.72754,7.885984 -11.3307,12.719758 l -1.75169,3.252689 6.26514,12.416472 c 8.08981,16.03268 9.5411,17.61108 16.19282,17.61108 2.81242,0 5.98391,-0.46583 7.04775,-1.03518 z M 768.92856,89.872277 c 27.87705,-4.481723 40.53393,-6.976292 43.69808,-8.612537 1.54575,-0.799338 4.00536,-3.258966 5.4658,-5.465842 4.3251,-6.535672 3.05955,-6.801438 -16.92559,-3.554376 -35.78467,5.814069 -56.24479,9.724504 -58.45393,11.171986 -4.73755,3.10416 -1.10238,11.166043 4.53079,10.048154 1.47667,-0.293042 11.23485,-1.907365 21.68485,-3.587385 z m -769.81445,0.81558 c 1.32931,-1.248824 2.31445,-3.342942 2.31445,-4.919846 0,-2.574121 -0.42142,-2.839568 -6.75,-4.251713 -11.35476,-2.533678 -59.436355,-10.626478 -64.75,-10.898326 -4.341972,-0.222136 -5.036823,0.0074 -5.279802,1.744199 -0.15389,1.1 1.092746,3.658838 2.770303,5.686306 3.578082,4.324413 5.798031,4.928052 40.009499,10.879197 25.96548,4.516741 28.59579,4.662859 31.68555,1.760183 z"
         id="path3042"
         connector-curvature="0"
         inkscape:connector-curvature="0" />
    </g>
  </g>
</svg>
