<?xml version="1.0" encoding="UTF-8" standalone="no"?>
<svg
   xmlns:dc="http://purl.org/dc/elements/1.1/"
   xmlns:cc="http://creativecommons.org/ns#"
   xmlns:rdf="http://www.w3.org/1999/02/22-rdf-syntax-ns#"
   xmlns:svg="http://www.w3.org/2000/svg"
   xmlns="http://www.w3.org/2000/svg"
   xmlns:sodipodi="http://sodipodi.sourceforge.net/DTD/sodipodi-0.dtd"
   xmlns:inkscape="http://www.inkscape.org/namespaces/inkscape"
   viewBox="0 0 1200 520"
   version="1.1"
   height="520"
   width="1200"
   id="svg3021"
   inkscape:version="0.48.4 r9939"
   sodipodi:docname="PrototypeLogo.svg"
   inkscape:export-filename="C:\Users\kevin\Desktop\PrototypeLogo.png"
   inkscape:export-xdpi="354.46155"
   inkscape:export-ydpi="354.46155">
  <metadata
     id="metadata3031">
    <rdf:RDF>
      <cc:Work
         rdf:about="">
        <dc:format>image/svg+xml</dc:format>
        <dc:type
           rdf:resource="http://purl.org/dc/dcmitype/StillImage" />
        <dc:title></dc:title>
      </cc:Work>
    </rdf:RDF>
  </metadata>
  <defs
     id="defs3029" />
  <sodipodi:namedview
     pagecolor="#ffffff"
     bordercolor="#666666"
     borderopacity="1"
     objecttolerance="10"
     gridtolerance="10"
     guidetolerance="10"
     inkscape:pageopacity="0"
     inkscape:pageshadow="2"
     inkscape:window-width="640"
     inkscape:window-height="480"
     id="namedview3027"
     showgrid="false"
     inkscape:zoom="0.23833333"
     inkscape:cx="600"
     inkscape:cy="260"
     inkscape:window-x="590"
     inkscape:window-y="158"
     inkscape:window-maximized="0"
     inkscape:current-layer="svg3021" />
  <g
     transform="translate(-100,-72.361871)"
     style="stroke:#222222;stroke-width:6;stroke-linejoin:round;stroke-miterlimit:4;stroke-opacity:1;stroke-dasharray:none"
     id="g3023" />
  <path
     d="m 500,300 200,0 0,120 -200,0 0,80 M 20,60 l 200,0 0,120 -200,0 0,80 m 1160,40 -200,0 0,60 200,0 0,60 -200,0 m -240,0 200,0 m -200,-60 200,0 m -200,-60 200,0 m -480,120 0,80 -200,0 m 0,-200 0,120 200,0 0,-120 m -240,0 -100,0 0,120 m 0,-160 0,40 -100,0 M 980,59.999997 980,180 l 200,0 0,-120.000003 z M 840,20 840,180 M 740,59.999997 l 200,0 m -440,0 L 500,180 700,180 700,59.999997 z M 260,180 l 0,-120.000003 200,0"
     style="fill:none;stroke:#222222;stroke-width:6;stroke-linecap:butt;stroke-linejoin:round;stroke-miterlimit:4;stroke-opacity:1;stroke-dasharray:none"
     id="path3025" />
</svg>
